<svg width="40" height="19" viewBox="0 0 40 19" fill="none" xmlns="http://www.w3.org/2000/svg">
<g clip-path="url(#clip0_7_750)">
<path d="M15.5857 15.5928H10.4775V3.43665H15.7694C18.2512 3.43665 19.1143 5.45754 17.8591 7.32244L17.2648 8.20408C21.4267 10.3656 20.074 15.5939 15.5837 15.5939M14.9771 8.78397L15.9911 7.27009C16.1893 7.01842 16.2977 6.70774 16.299 6.38743C16.2876 6.02173 16.1346 5.67477 15.8723 5.41972C15.6099 5.16467 15.2588 5.02147 14.8929 5.02032H13.3401V13.9599H14.2022C14.5498 13.9923 14.9002 13.9466 15.2279 13.8261C15.5555 13.7056 15.852 13.5133 16.0958 13.2634C16.3395 13.0135 16.5242 12.7122 16.6365 12.3816C16.7487 12.0511 16.7856 11.6996 16.7445 11.3529C16.8192 10.7827 16.6801 10.2051 16.3542 9.73127C16.0282 9.25749 15.5384 8.92114 14.9791 8.78705" fill="#004290"/>
<path d="M5.30389 15.5927H0.197754V3.43652H5.49068C7.97139 3.43652 8.83661 5.45742 7.57932 7.32232L6.98609 8.20396C11.1469 10.3655 9.7942 15.5927 5.30389 15.5927ZM4.69731 8.78385L5.71135 7.26997C5.9095 7.01829 6.01788 6.70762 6.01926 6.3873C6.00836 6.02205 5.85611 5.67528 5.59458 5.42007C5.33305 5.16486 4.98267 5.02113 4.61725 5.01917H3.05821V13.9587H3.92138C4.26889 13.991 4.61921 13.9452 4.94672 13.8246C5.27422 13.704 5.57063 13.5117 5.81424 13.2618C6.05785 13.0119 6.24251 12.7107 6.3547 12.3802C6.46688 12.0497 6.50377 11.6984 6.46265 11.3518C6.53732 10.7816 6.39828 10.2039 6.07231 9.73012C5.74635 9.25634 5.25654 8.91999 4.69731 8.7859" fill="#004290"/>
<path d="M27.6666 3.43665H29.5849L25.8756 15.5877H22.9628L18.9888 3.43665H21.1359C21.9652 3.43665 22.1828 3.65115 22.6169 5.0275L24.918 12.6698L27.6666 3.43665Z" fill="#004290"/>
<path d="M35.6771 4.67436C35.3343 3.66032 35.1034 3.43555 34.2053 3.43555H31.8827L28.1621 15.5887H30.0578L30.8553 12.9643H35.2768L36.0784 15.5876H39.3628L35.6771 4.67436ZM31.388 11.1846L33.0466 5.64222L34.7298 11.1846H31.388Z" fill="#004290"/>
</g>
<defs>
<clipPath id="clip0_7_750">
<rect width="39.0016" height="18.4744" fill="white" transform="translate(0.197754 0.356506)"/>
</clipPath>
</defs>
</svg>
