<svg width="96" height="19" viewBox="0 0 96 19" fill="none" xmlns="http://www.w3.org/2000/svg">
<path d="M25.8961 11.8906C25.5882 11.8906 25.2834 11.8303 24.999 11.7131C24.7145 11.5959 24.4561 11.4242 24.2384 11.2077C24.0207 10.9912 23.848 10.7342 23.7302 10.4514C23.6124 10.1685 23.5518 9.86538 23.5518 9.55923C23.5518 9.25308 23.6124 8.94992 23.7302 8.66707C23.848 8.38422 24.0207 8.12722 24.2384 7.91073C24.4561 7.69425 24.7145 7.52253 24.999 7.40537C25.2834 7.28821 25.5882 7.22791 25.8961 7.22791C26.3964 7.2303 26.8868 7.36676 27.3157 7.62294L26.9927 8.51013C26.6625 8.32111 26.29 8.21736 25.9091 8.20836C25.7254 8.19238 25.5404 8.21638 25.367 8.27869C25.1936 8.34101 25.0359 8.44014 24.9048 8.56919C24.7738 8.69824 24.6727 8.85411 24.6084 9.02598C24.544 9.19785 24.5182 9.38158 24.5325 9.56441C24.5182 9.74724 24.544 9.93097 24.6084 10.1028C24.6727 10.2747 24.7738 10.4306 24.9048 10.5596C25.0359 10.6887 25.1936 10.7878 25.367 10.8501C25.5404 10.9124 25.7254 10.9364 25.9091 10.9205C26.31 10.9123 26.7013 10.7973 27.0422 10.5876L27.3587 11.4748C26.9202 11.7479 26.4135 11.8933 25.8961 11.8944" fill="#664A87"/>
<path d="M30.5653 8.16043C30.3915 8.1669 30.221 8.20912 30.0645 8.2844C29.908 8.35969 29.7689 8.46641 29.6559 8.59784C29.543 8.72927 29.4586 8.88256 29.4082 9.04803C29.3579 9.2135 29.3425 9.38756 29.3631 9.55923C29.3356 9.73212 29.3461 9.90888 29.3939 10.0774C29.4417 10.2458 29.5256 10.402 29.6399 10.5351C29.7543 10.6682 29.8962 10.7751 30.0561 10.8483C30.216 10.9216 30.3899 10.9596 30.5659 10.9596C30.7419 10.9596 30.9159 10.9216 31.0757 10.8483C31.2356 10.7751 31.3775 10.6682 31.4919 10.5351C31.6062 10.402 31.6901 10.2458 31.7379 10.0774C31.7857 9.90888 31.7962 9.73212 31.7687 9.55923C31.7891 9.38749 31.7736 9.2134 31.723 9.04793C31.6725 8.88246 31.588 8.72919 31.475 8.59778C31.3619 8.46638 31.2227 8.35967 31.0661 8.2844C30.9096 8.20913 30.739 8.16692 30.5653 8.16043ZM30.547 11.8893C30.2377 11.9013 29.9293 11.8489 29.6415 11.7355C29.3537 11.6221 29.093 11.4501 28.8759 11.2306C28.6589 11.0111 28.4904 10.7489 28.3811 10.4609C28.2719 10.1728 28.2245 9.86528 28.2418 9.55793C28.2297 9.24856 28.282 8.94004 28.3956 8.65175C28.5091 8.36346 28.6814 8.10163 28.9015 7.88271C29.1217 7.66378 29.385 7.49248 29.6749 7.37958C29.9647 7.26667 30.275 7.21459 30.5861 7.22661C30.8953 7.21539 31.2034 7.26832 31.4908 7.38201C31.7783 7.4957 32.0388 7.66767 32.2558 7.88698C32.4728 8.10628 32.6415 8.36811 32.7511 8.65579C32.8607 8.94347 32.909 9.25071 32.8927 9.55793C32.9044 9.86721 32.8517 10.1756 32.738 10.4637C32.6244 10.7518 32.4521 11.0134 32.232 11.2323C32.012 11.4511 31.7488 11.6224 31.4591 11.7355C31.1694 11.8485 30.858 11.9009 30.547 11.8893Z" fill="#664A87"/>
<path d="M38.0115 11.9027L35.2765 9.45485V11.816H34.2241V7.2362L34.3661 7.21289L37.0686 9.64135V7.29837H38.1222V11.8846L38.0115 11.9027Z" fill="#664A87"/>
<path d="M40.6621 8.26113V9.25972H42.2249V10.1819H40.6621V11.8216H39.6084V7.30011H42.4841V8.26113H40.6621Z" fill="#664A87"/>
<path d="M44.7075 7.30011H43.6538V11.8177H44.7075V7.30011Z" fill="#664A87"/>
<path d="M47.905 9.1105L47.4518 10.1946H48.3504L47.905 9.1105ZM49.0264 11.8161L48.6852 10.9963H47.1223L46.7823 11.8161H45.6987L47.8373 7.26099H47.9793L50.1269 11.8161H49.0264Z" fill="#664A87"/>
<path d="M54.8904 11.9027L52.1554 9.45485V11.816H51.103V7.2362L51.245 7.21289L53.9475 9.64135V7.29837H55.0011V11.8846L54.8904 11.9027Z" fill="#664A87"/>
<path d="M57.7843 10.8631H59.9593V11.819H56.1042L56.0742 11.7076L58.3235 8.26243H56.2396V7.30011H60.0088L60.0388 7.41797L57.7843 10.8631Z" fill="#664A87"/>
<path d="M62.9958 9.1105L62.5439 10.1946H63.4426L62.9958 9.1105ZM64.1185 11.8161L63.7773 10.9963H62.2144L61.8745 11.8161H60.8013L62.9398 7.26099H63.0818L65.2203 11.8161H64.1185Z" fill="#664A87"/>
<path d="M68.998 7.54633C68.7399 7.54999 68.4852 7.60584 68.2495 7.71049C68.0137 7.81513 67.8019 7.96638 67.6268 8.15503C67.4517 8.34367 67.3171 8.56577 67.2311 8.80781C67.145 9.04985 67.1094 9.30677 67.1264 9.56293C67.106 9.81981 67.1392 10.0781 67.224 10.3216C67.3088 10.5651 67.4434 10.7885 67.6192 10.9778C67.7951 11.1671 68.0084 11.3181 68.2458 11.4214C68.4832 11.5247 68.7395 11.578 68.9986 11.578C69.2578 11.578 69.5141 11.5247 69.7515 11.4214C69.9889 11.3181 70.2022 11.1671 70.3781 10.9778C70.5539 10.7885 70.6885 10.5651 70.7733 10.3216C70.8581 10.0781 70.8913 9.81981 70.8708 9.56293C70.8878 9.30666 70.8522 9.04964 70.7661 8.80751C70.68 8.56539 70.5452 8.34323 70.37 8.15456C70.1948 7.9659 69.9828 7.81467 69.7469 7.71011C69.511 7.60554 69.2562 7.54982 68.998 7.54633ZM68.9863 11.88C68.6847 11.8794 68.3864 11.8183 68.1092 11.7004C67.8319 11.5826 67.5814 11.4104 67.3725 11.1941C67.1637 10.9779 67.0008 10.7219 66.8936 10.4417C66.7865 10.1614 66.7372 9.86255 66.7487 9.56293C66.7641 9.12305 66.9095 8.69743 67.1667 8.33924C67.4239 7.98106 67.7816 7.7062 68.195 7.549C68.6084 7.3918 69.0592 7.35924 69.4911 7.45538C69.923 7.55153 70.3169 7.77211 70.6234 8.08958C70.93 8.40704 71.1357 8.80731 71.2148 9.24036C71.2939 9.67341 71.243 10.1201 71.0683 10.5245C70.8936 10.9289 70.603 11.2731 70.2327 11.5142C69.8624 11.7553 69.4288 11.8825 68.9863 11.88Z" fill="#7E90A2"/>
<path d="M76.9479 11.8845L73.9238 8.05081V11.8172H73.5825V7.24909L73.6633 7.23096L76.6588 11.0219V7.29831H77.0053V11.8716L76.9479 11.8845Z" fill="#7E90A2"/>
<path d="M79.5684 11.8177V7.30011H79.9161V11.503H82.1302V11.8177H79.5684Z" fill="#7E90A2"/>
<path d="M84.567 7.30011H84.2192V11.8177H84.567V7.30011Z" fill="#7E90A2"/>
<path d="M90.487 11.8845L87.4628 8.05081V11.8172H87.1216V7.24909L87.2023 7.23096L90.1979 11.0219V7.29831H90.5443V11.8716L90.487 11.8845Z" fill="#7E90A2"/>
<path d="M93.0996 11.8177V7.30011H95.6654V7.60836H93.4513V9.3711H95.444V9.67936H93.4434V11.503H95.6575V11.8177H93.0996Z" fill="#7E90A2"/>
<path d="M9.9517 12.0138C9.47401 12.014 9.00698 11.8734 8.60969 11.6096C8.2124 11.3459 7.9027 10.9709 7.71978 10.532C7.53686 10.0932 7.48893 9.61029 7.58206 9.14437C7.67519 8.67845 7.90519 8.25046 8.24297 7.91456C8.58074 7.57866 9.01112 7.34994 9.47964 7.25732C9.94816 7.16471 10.4338 7.21237 10.8751 7.39428C11.3163 7.57619 11.6934 7.88416 11.9587 8.27925C12.2239 8.67433 12.3653 9.13877 12.3651 9.61381C12.3651 9.92897 12.3026 10.2411 12.1814 10.5322C12.0601 10.8234 11.8823 11.088 11.6582 11.3108C11.4341 11.5337 11.1681 11.7105 10.8753 11.8311C10.5825 11.9517 10.2686 12.0138 9.9517 12.0138ZM9.9517 5.60522C9.15439 5.60497 8.37492 5.83985 7.71186 6.28016C7.0488 6.72048 6.53194 7.34644 6.22665 8.07889C5.92135 8.81134 5.84134 9.61737 5.99673 10.395C6.15212 11.1727 6.53593 11.8871 7.09962 12.4478C7.6633 13.0086 8.38155 13.3905 9.16352 13.5453C9.94548 13.7 10.756 13.6207 11.4927 13.3174C12.2293 13.014 12.8589 12.5002 13.3019 11.841C13.7449 11.1818 13.9814 10.4067 13.9814 9.61381C13.9815 9.08745 13.8774 8.56622 13.675 8.07989C13.4726 7.59355 13.1758 7.15164 12.8016 6.77939C12.4274 6.40714 11.9831 6.11185 11.4941 5.91038C11.0051 5.70892 10.481 5.60522 9.9517 5.60522Z" fill="#7E90A2"/>
<path d="M9.94407 0.378174C8.10692 0.378174 6.31103 0.919927 4.78349 1.93493C3.25596 2.94993 2.06539 4.39258 1.36234 6.08046C0.659298 7.76835 0.475349 9.62564 0.833759 11.4175C1.19217 13.2093 2.07684 14.8552 3.3759 16.1471C4.67496 17.4389 6.33007 18.3187 8.13191 18.6751C9.93376 19.0315 11.8014 18.8486 13.4987 18.1495C15.196 17.4503 16.6468 16.2664 17.6674 14.7473C18.6881 13.2283 19.2329 11.4423 19.2329 9.61539C19.2329 9.40758 19.1498 9.20827 19.0021 9.06132C18.8543 8.91437 18.6539 8.83181 18.4449 8.83181C18.2359 8.83181 18.0355 8.91437 17.8877 9.06132C17.74 9.20827 17.6569 9.40758 17.6569 9.61539C17.6567 11.1326 17.204 12.6157 16.3561 13.8772C15.5083 15.1386 14.3033 16.1216 12.8936 16.702C11.484 17.2824 9.93288 17.434 8.43653 17.1378C6.94017 16.8415 5.56576 16.1107 4.4871 15.0376C3.40843 13.9646 2.67396 12.5976 2.37656 11.1094C2.07916 9.62129 2.23219 8.07886 2.81629 6.67721C3.4004 5.27555 4.38935 4.07761 5.65808 3.23489C6.92681 2.39216 8.41835 1.9425 9.94407 1.94275C10.1527 1.94275 10.3528 1.86033 10.5003 1.71362C10.6478 1.56692 10.7307 1.36794 10.7307 1.16046C10.7307 0.952987 10.6478 0.754008 10.5003 0.607301C10.3528 0.460593 10.1527 0.378174 9.94407 0.378174Z" fill="#664A87"/>
<path d="M9.9452 2.97217C8.17354 2.97217 6.47444 3.67205 5.22168 4.91785C3.96893 6.16365 3.26514 7.85332 3.26514 9.61514C3.26514 11.377 3.96893 13.0666 5.22168 14.3124C6.47444 15.5582 8.17354 16.2581 9.9452 16.2581C10.0512 16.2581 10.1562 16.2374 10.2542 16.197C10.3522 16.1566 10.4412 16.0975 10.5162 16.0229C10.5912 15.9484 10.6506 15.8598 10.6912 15.7624C10.7318 15.665 10.7527 15.5606 10.7527 15.4551C10.7527 15.3497 10.7318 15.2452 10.6912 15.1478C10.6506 15.0504 10.5912 14.9619 10.5162 14.8873C10.4412 14.8127 10.3522 14.7536 10.2542 14.7132C10.1562 14.6729 10.0512 14.6521 9.9452 14.6521C8.94337 14.6524 7.96396 14.3572 7.13084 13.8038C6.29772 13.2505 5.64832 12.464 5.26475 11.5436C4.88119 10.6232 4.7807 9.61044 4.97599 8.63328C5.17128 7.65612 5.65358 6.7585 6.36189 6.05394C7.0702 5.34938 7.97271 4.86953 8.95527 4.67507C9.93784 4.48061 10.9563 4.58029 11.8819 4.96148C12.8075 5.34268 13.5986 5.98828 14.1553 6.81663C14.7119 7.64498 15.009 8.61887 15.009 9.61514C15.0174 9.82271 15.1062 10.019 15.2568 10.1629C15.4074 10.3068 15.6082 10.3872 15.8171 10.3872C16.026 10.3872 16.2268 10.3068 16.3774 10.1629C16.5281 10.019 16.6169 9.82271 16.6253 9.61514C16.6253 7.85332 15.9215 6.16365 14.6687 4.91785C13.416 3.67205 11.7169 2.97217 9.9452 2.97217Z" fill="#BAC621"/>
</svg>
