<svg width="60" height="19" viewBox="0 0 60 19" fill="none" xmlns="http://www.w3.org/2000/svg">
<g clip-path="url(#clip0_7_1030)">
<path d="M24.1953 3.39716H25.1833V6.73485C25.1918 6.91966 25.1617 7.10421 25.0948 7.27739C25.0279 7.45057 24.9257 7.6088 24.7943 7.74253C24.6385 7.87835 24.4562 7.98219 24.2582 8.04782C24.0602 8.11345 23.8506 8.13952 23.642 8.12446C23.2506 8.14551 22.8664 8.0161 22.5724 7.76415C22.4368 7.62213 22.333 7.4544 22.2673 7.27148C22.2016 7.08856 22.1755 6.89441 22.1907 6.70123V6.23282H23.0825V6.65318C23.0673 6.8344 23.1105 7.01572 23.206 7.17203C23.3258 7.27903 23.4822 7.339 23.6448 7.34033C23.8075 7.34166 23.9649 7.28426 24.0866 7.17924C24.1732 7.0122 24.2112 6.8253 24.1965 6.63877L24.1953 3.39716Z" fill="#2E281F"/>
<path d="M27.8239 7.96079V7.48038C27.7139 7.66187 27.5546 7.81042 27.3635 7.90977C27.1725 8.00913 26.957 8.05545 26.7407 8.04367C26.5772 8.04612 26.4149 8.01587 26.264 7.95479C26.123 7.89696 25.9966 7.81009 25.8934 7.70017C25.7858 7.58597 25.7019 7.45261 25.6464 7.30743C25.5861 7.14458 25.5563 6.97248 25.5587 6.79939V4.57385H26.4764V6.66607C26.4764 7.08804 26.6724 7.29902 27.0643 7.29902C27.1646 7.30566 27.265 7.2896 27.3578 7.25208C27.4506 7.21457 27.5332 7.15663 27.5991 7.08283C27.7239 6.92396 27.7877 6.72769 27.7794 6.52795V4.57385H28.6996V7.96079H27.8239Z" fill="#2E281F"/>
<path d="M29.9306 6.5021C29.9314 6.72608 30.0127 6.94274 30.1603 7.11463C30.2288 7.1895 30.3135 7.24868 30.4083 7.28793C30.5032 7.32718 30.6057 7.34552 30.7087 7.34163C30.8485 7.34421 30.9864 7.30975 31.1076 7.24195C31.1621 7.21234 31.21 7.17243 31.2484 7.12458C31.2867 7.07673 31.3149 7.0219 31.3312 6.9633H32.2797C32.1892 7.2859 31.9895 7.56939 31.7128 7.768C31.4317 7.96024 31.0943 8.05922 30.7507 8.05025C29.5914 8.05025 29.0113 7.43531 29.0105 6.20545C29.0071 5.9648 29.0451 5.7253 29.1229 5.49683C29.1932 5.29572 29.3054 5.1109 29.4526 4.95396C29.5991 4.80059 29.7794 4.68151 29.98 4.60566C30.2081 4.52245 30.4503 4.4817 30.6939 4.48555C30.9236 4.47125 31.1536 4.50917 31.3656 4.59631C31.5776 4.68345 31.7659 4.81741 31.9154 4.98759C32.2241 5.43302 32.3698 5.96643 32.3291 6.5021H29.9306ZM31.3806 5.93761C31.3781 5.82577 31.3555 5.71522 31.3139 5.61093C31.2773 5.52334 31.2232 5.44372 31.1546 5.37673C31.0897 5.31586 31.0122 5.26918 30.9273 5.23981C30.8452 5.21196 30.7587 5.19815 30.6717 5.19897C30.5826 5.19832 30.4943 5.21547 30.4123 5.24935C30.3303 5.28324 30.2563 5.33313 30.1949 5.39594C30.052 5.54456 29.9703 5.73904 29.9652 5.94242L31.3806 5.93761Z" fill="#2E281F"/>
<path d="M35.0799 7.5071C35.0106 7.66585 34.8835 7.79415 34.723 7.86741C34.537 7.95539 34.332 7.99903 34.1252 7.99472C33.8745 8.00252 33.6255 7.95187 33.399 7.84699C33.2119 7.75537 33.0499 7.62203 32.9259 7.45785C32.8019 7.29062 32.7129 7.10125 32.6641 6.90057C32.6096 6.68927 32.5823 6.47224 32.5826 6.25441C32.5806 6.00906 32.6224 5.76524 32.7061 5.53378C32.7783 5.32995 32.8888 5.14097 33.0322 4.9765C33.1644 4.82479 33.3281 4.702 33.5126 4.61619C33.6985 4.53141 33.9014 4.48792 34.1067 4.48888C34.3017 4.47954 34.4957 4.522 34.6678 4.61172C34.8399 4.70143 34.9837 4.835 35.0836 4.99812V4.57655H36.0038V7.99592C36.009 8.22846 35.9631 8.4594 35.8692 8.67331C35.7845 8.86096 35.6579 9.02794 35.4986 9.16213C35.3368 9.2964 35.1491 9.39806 34.9465 9.46119C34.5069 9.59649 34.035 9.59649 33.5954 9.46119C33.4005 9.40145 33.2193 9.30561 33.0618 9.17895C32.913 9.05791 32.7933 8.90664 32.711 8.73576C32.6249 8.54985 32.5827 8.34752 32.5875 8.14365H33.4434C33.4375 8.23398 33.4533 8.32441 33.4896 8.40779C33.5258 8.49117 33.5815 8.56521 33.6522 8.62407C33.8108 8.74308 34.0079 8.80313 34.208 8.79341C34.4309 8.79851 34.6489 8.72897 34.8255 8.59644C34.9084 8.53359 34.9747 8.45243 35.019 8.3597C35.0632 8.26697 35.0841 8.16533 35.0799 8.06318V7.5071ZM34.3228 7.28731C34.4299 7.28929 34.536 7.26775 34.6333 7.22428C34.7306 7.18082 34.8166 7.11656 34.8848 7.03629C35.0431 6.84248 35.1227 6.59883 35.1083 6.35169C35.1083 5.62626 34.8465 5.26595 34.3228 5.27075C33.7991 5.27556 33.5373 5.61946 33.5373 6.30245C33.5235 6.56061 33.6026 6.81539 33.7609 7.02308C33.8263 7.10753 33.9113 7.1758 34.0089 7.22234C34.1065 7.26887 34.2141 7.29236 34.3228 7.29091" fill="#2E281F"/>
<path d="M38.1207 8.04928C37.8621 8.05359 37.6051 8.00955 37.3636 7.91957C37.1506 7.83918 36.9585 7.71424 36.8008 7.55359C36.643 7.39294 36.5236 7.20051 36.4508 6.98996C36.3676 6.75838 36.3258 6.51464 36.3273 6.26933C36.3241 6.02076 36.3659 5.77357 36.4508 5.5391C36.5257 5.3291 36.6469 5.13754 36.8058 4.97781C36.9647 4.81807 37.1576 4.69401 37.371 4.6143C37.6074 4.52649 37.8589 4.48329 38.112 4.48699C38.3652 4.48224 38.6169 4.52548 38.8531 4.6143C39.0644 4.69362 39.2553 4.81698 39.4123 4.97572C39.5694 5.13445 39.6888 5.3247 39.7621 5.53309C39.9267 6.00963 39.9267 6.52543 39.7621 7.00197C39.6853 7.21055 39.565 7.40149 39.4089 7.56286C39.2516 7.72122 39.0607 7.8442 38.8494 7.92317C38.6159 8.01075 38.3672 8.05396 38.117 8.05048M38.117 7.30103C38.6777 7.30103 38.9585 6.95713 38.9593 6.26933C38.9601 5.58154 38.6793 5.23964 38.117 5.24364C37.5562 5.24364 37.2755 5.58554 37.2746 6.26933C37.2738 6.95313 37.5546 7.29703 38.117 7.30103Z" fill="#2E281F"/>
<path d="M25.0653 14.2366V13.0608C25.074 12.976 25.0647 12.8903 25.038 12.8091C25.0112 12.7279 24.9675 12.6529 24.9097 12.5888C24.7396 12.4763 24.5338 12.4265 24.3292 12.4483H23.2819V14.2366H22.3271V9.67267H24.7109C24.9127 9.67027 25.1132 9.70406 25.3025 9.77235C25.4712 9.83462 25.6259 9.92802 25.7582 10.0474C25.8859 10.1655 25.9862 10.3088 26.0522 10.4678C26.1212 10.635 26.156 10.8136 26.1547 10.9938C26.1591 11.2249 26.0966 11.4526 25.9744 11.6508C25.8553 11.8404 25.6711 11.983 25.4544 12.0531C25.6332 12.0981 25.7898 12.2032 25.8966 12.3498C25.996 12.5345 26.0413 12.7423 26.0275 12.9503V14.2438L25.0653 14.2366ZM23.2819 10.4593V11.6772H24.517C24.6173 11.6871 24.7187 11.677 24.8149 11.6475C24.9111 11.6179 25.0001 11.5696 25.0765 11.5055C25.1856 11.3865 25.2436 11.2312 25.2382 11.0719C25.2446 10.9106 25.1877 10.753 25.0789 10.6311C25.0084 10.568 24.9249 10.5201 24.8341 10.4906C24.7432 10.461 24.6469 10.4503 24.5515 10.4593H23.2819Z" fill="#2E281F"/>
<path d="M27.2761 12.7796C27.2769 13.0035 27.3582 13.2202 27.5058 13.3921C27.5743 13.467 27.659 13.5261 27.7538 13.5654C27.8487 13.6046 27.9512 13.623 28.0542 13.6191C28.1928 13.621 28.3293 13.5866 28.4494 13.5194C28.5039 13.4898 28.5518 13.4499 28.5902 13.402C28.6285 13.3542 28.6567 13.2994 28.673 13.2408H29.6215C29.531 13.5634 29.3313 13.8469 29.0546 14.0455C28.7735 14.2377 28.4361 14.3367 28.0925 14.3277C26.9323 14.3277 26.3523 13.7128 26.3523 12.4829C26.3489 12.2423 26.3869 12.0028 26.4646 11.7743C26.535 11.5732 26.6472 11.3884 26.7944 11.2314C26.9409 11.0781 27.1212 10.959 27.3218 10.8831C27.5499 10.7999 27.7921 10.7592 28.0357 10.763C28.2654 10.7487 28.4954 10.7866 28.7074 10.8738C28.9194 10.9609 29.1077 11.0949 29.2572 11.2651C29.5659 11.7105 29.7116 12.2439 29.6709 12.7796H27.2761ZM28.7261 12.2151C28.7236 12.1032 28.701 11.9927 28.6594 11.8884C28.6228 11.8008 28.5687 11.7212 28.5001 11.6542C28.4349 11.5934 28.3576 11.5463 28.2728 11.5161C28.1888 11.4869 28.1002 11.4718 28.011 11.4716C27.9219 11.471 27.8336 11.4881 27.7516 11.522C27.6696 11.5559 27.5956 11.6058 27.5342 11.6686C27.3918 11.8176 27.3097 12.0117 27.3033 12.2151H28.7261Z" fill="#2E281F"/>
<path d="M32.0871 11.8758C32.0831 11.8086 32.0647 11.743 32.033 11.6832C32.0013 11.6235 31.957 11.5708 31.903 11.5287C31.7609 11.4515 31.5985 11.4169 31.4362 11.429C31.2984 11.4227 31.1607 11.4448 31.0323 11.4939C30.9888 11.5118 30.952 11.5422 30.9268 11.5811C30.9016 11.6199 30.8893 11.6654 30.8915 11.7113C30.8901 11.7586 30.9026 11.8053 30.9275 11.8459C30.9525 11.8865 30.9888 11.9194 31.0323 11.9407C31.1671 12.0085 31.3097 12.0605 31.4572 12.0956C31.656 12.1508 31.8438 12.2001 32.0228 12.2433C32.1836 12.2817 32.342 12.329 32.4971 12.385C32.6639 12.4457 32.8107 12.549 32.922 12.6841C33.0288 12.8369 33.0809 13.0197 33.0702 13.2042C33.0781 13.3616 33.0472 13.5186 32.9802 13.6621C32.9132 13.8056 32.8119 13.9315 32.6849 14.0293C32.351 14.2483 31.9516 14.3527 31.5498 14.3259C31.1116 14.3541 30.6765 14.2377 30.3147 13.9956C30.1799 13.8976 30.07 13.7709 29.9934 13.6251C29.9167 13.4794 29.8754 13.3186 29.8726 13.1549H30.8211C30.8176 13.2274 30.8332 13.2996 30.8665 13.3645C30.8998 13.4295 30.9497 13.4851 31.0113 13.526C31.1702 13.6218 31.3557 13.6675 31.5424 13.6569C31.6902 13.6603 31.8371 13.6333 31.9734 13.5777C32.0304 13.5566 32.0788 13.5182 32.1116 13.4682C32.1443 13.4183 32.1595 13.3593 32.155 13.3002C32.1577 13.2464 32.1433 13.193 32.1137 13.1475C32.0841 13.1019 32.0407 13.0663 31.9895 13.0456C31.863 12.9902 31.7316 12.9464 31.5967 12.9147C31.3044 12.8466 31.0685 12.7846 30.889 12.7285C30.7292 12.6828 30.5766 12.6157 30.4358 12.5292C30.2903 12.4484 30.1713 12.3294 30.0924 12.1857C30.0284 12.0543 29.9959 11.9106 29.9973 11.7653C29.9963 11.6287 30.0227 11.4933 30.0751 11.3666C30.1293 11.24 30.2171 11.1297 30.3295 11.0471C30.4662 10.9486 30.6215 10.8772 30.7865 10.8369C31.0072 10.7824 31.2345 10.757 31.4621 10.7612C31.8547 10.731 32.2464 10.8304 32.5737 11.0435C32.6968 11.1466 32.7956 11.2744 32.8634 11.418C32.9311 11.5616 32.9663 11.7178 32.9665 11.8758H32.0871Z" fill="#2E281F"/>
<path d="M33.332 15.8406V10.8527H34.2164L34.2238 11.2658C34.3226 11.1038 34.4653 10.9712 34.6362 10.8824C34.8071 10.7937 34.9998 10.7523 35.1933 10.7626C35.4011 10.7602 35.6071 10.8012 35.7973 10.8827C35.9828 10.9657 36.1463 11.089 36.2752 11.243C36.4149 11.413 36.5204 11.6069 36.5865 11.8147C36.6655 12.0619 36.7039 12.3197 36.7001 12.5786C36.7027 12.8168 36.6702 13.0542 36.6038 13.2836C36.5472 13.4835 36.4525 13.6713 36.3246 13.8373C36.2059 13.99 36.0519 14.1134 35.8751 14.1976C35.6867 14.2852 35.4799 14.3288 35.2711 14.3249C35.0668 14.3286 34.8649 14.282 34.6842 14.1894C34.5034 14.0968 34.3497 13.9612 34.2374 13.7952V15.837L33.332 15.8406ZM34.9735 13.5586C35.5021 13.5586 35.7664 13.2099 35.7664 12.5125C35.778 12.2492 35.7008 11.9894 35.5465 11.7727C35.4836 11.6837 35.399 11.6111 35.3004 11.5615C35.2017 11.5118 35.092 11.4866 34.9809 11.488C34.8731 11.487 34.7666 11.5108 34.67 11.5573C34.5735 11.6038 34.4896 11.6719 34.4251 11.7559C34.2687 11.9571 34.1896 12.2053 34.2015 12.4573C34.2015 13.1915 34.4588 13.5586 34.9735 13.5586Z" fill="#2E281F"/>
<path d="M38.7423 14.3277C38.4837 14.332 38.2266 14.288 37.9851 14.198C37.7722 14.1176 37.5801 13.9927 37.4223 13.832C37.2646 13.6714 37.1451 13.479 37.0724 13.2684C36.9892 13.0368 36.9474 12.7931 36.9489 12.5478C36.9457 12.2992 36.9875 12.052 37.0724 11.8175C37.1473 11.6075 37.2684 11.416 37.4274 11.2563C37.5863 11.0965 37.7792 10.9725 37.9926 10.8927C38.229 10.8049 38.4805 10.7617 38.7336 10.7654C38.9868 10.7607 39.2385 10.8039 39.4747 10.8927C39.686 10.9721 39.8769 11.0954 40.0339 11.2542C40.1909 11.4129 40.3103 11.6031 40.3837 11.8115C40.5483 12.2881 40.5483 12.8039 40.3837 13.2804C40.3068 13.489 40.1866 13.6799 40.0305 13.8413C39.8732 13.9997 39.6823 14.1226 39.471 14.2016C39.2374 14.2892 38.9888 14.3324 38.7385 14.3289M38.7385 13.5795C39.2993 13.5795 39.5801 13.2356 39.5809 12.5478C39.5817 11.86 39.3009 11.5181 38.7385 11.5221C38.1778 11.5221 37.897 11.864 37.8962 12.5478C37.8954 13.2316 38.1762 13.5755 38.7385 13.5795Z" fill="#2E281F"/>
<path d="M43.0828 14.2367V12.1865C43.1048 12 43.057 11.812 42.9482 11.6569C42.885 11.6051 42.8118 11.5663 42.7329 11.5425C42.654 11.5188 42.571 11.5107 42.4888 11.5188C42.012 11.5188 41.7737 11.7778 41.7737 12.2958V14.2367H40.8535V10.851H41.7317V11.347C41.8296 11.1643 41.9791 11.0126 42.1627 10.9098C42.5235 10.7435 42.9358 10.7165 43.3163 10.8342C43.4527 10.879 43.5772 10.9529 43.6806 11.0504C43.7855 11.1531 43.8675 11.2757 43.9215 11.4107C43.983 11.5636 44.0132 11.7268 44.0104 11.8911V14.2379L43.0828 14.2367Z" fill="#2E281F"/>
<path d="M46.5002 11.8759C46.4962 11.8088 46.4778 11.7432 46.446 11.6834C46.4143 11.6236 46.3701 11.5709 46.3161 11.5288C46.174 11.4517 46.0116 11.417 45.8493 11.4291C45.7114 11.4228 45.5738 11.4449 45.4454 11.494C45.4019 11.5119 45.365 11.5423 45.3399 11.5812C45.3147 11.62 45.3024 11.6655 45.3046 11.7114C45.3032 11.7587 45.3157 11.8054 45.3406 11.846C45.3656 11.8867 45.4019 11.9195 45.4454 11.9408C45.5802 12.0086 45.7228 12.0607 45.8703 12.0957C46.0691 12.151 46.2568 12.2002 46.4359 12.2434C46.5967 12.2818 46.755 12.3291 46.9102 12.3852C47.0769 12.4458 47.2237 12.5491 47.3351 12.6842C47.4419 12.837 47.494 13.0198 47.4833 13.2043C47.4912 13.3617 47.4603 13.5187 47.3933 13.6622C47.3263 13.8057 47.225 13.9316 47.0979 14.0294C46.7641 14.2484 46.3647 14.3528 45.9629 14.3261C45.5247 14.3542 45.0896 14.2379 44.7278 13.9958C44.593 13.8977 44.4831 13.771 44.4065 13.6253C44.3298 13.4795 44.2885 13.3187 44.2856 13.155H45.2342C45.2307 13.2275 45.2463 13.2997 45.2796 13.3647C45.3129 13.4296 45.3628 13.4852 45.4244 13.5262C45.5833 13.6219 45.7688 13.6677 45.9555 13.6571C46.1033 13.6604 46.2502 13.6334 46.3865 13.5778C46.4429 13.5574 46.4911 13.5202 46.5242 13.4714C46.5573 13.4225 46.5735 13.3648 46.5706 13.3064C46.5733 13.2525 46.5589 13.1992 46.5292 13.1536C46.4996 13.108 46.4562 13.0725 46.4051 13.0517C46.2786 12.9964 46.1471 12.9525 46.0123 12.9208C45.72 12.8528 45.4841 12.7907 45.3046 12.7347C45.1447 12.689 44.9922 12.6219 44.8513 12.5353C44.7044 12.4529 44.5845 12.3318 44.5055 12.1858C44.4415 12.0545 44.409 11.9107 44.4104 11.7654C44.4093 11.6288 44.4358 11.4934 44.4882 11.3667C44.5423 11.2401 44.6302 11.1298 44.7426 11.0472C44.8793 10.9487 45.0346 10.8773 45.1996 10.837C45.4203 10.7825 45.6475 10.7571 45.8752 10.7614C46.2678 10.7311 46.6595 10.8306 46.9868 11.0436C47.1099 11.1468 47.2087 11.2745 47.2765 11.4181C47.3442 11.5618 47.3794 11.7179 47.3795 11.8759H46.5002Z" fill="#2E281F"/>
<path d="M49.9259 14.2361C49.8951 14.1377 49.876 14.0361 49.8691 13.9334C49.7495 14.0595 49.6016 14.1569 49.4368 14.2181C49.2401 14.2925 49.0303 14.3288 48.8193 14.325C48.5025 14.3524 48.1871 14.2599 47.9387 14.0668C47.8458 13.9807 47.7729 13.8764 47.7245 13.7609C47.6762 13.6454 47.6536 13.5212 47.6583 13.3966C47.6497 13.1959 47.6922 12.9962 47.7818 12.8153C47.8581 12.674 47.9731 12.5559 48.1141 12.4742C48.2711 12.3861 48.4423 12.3243 48.6204 12.2916C48.8156 12.2532 49.0288 12.2175 49.2602 12.1847C49.423 12.1732 49.5818 12.1299 49.7271 12.0574C49.7679 12.0257 49.8002 11.9847 49.8211 11.9381C49.8421 11.8915 49.851 11.8407 49.8473 11.79C49.8435 11.7393 49.8271 11.6902 49.7995 11.647C49.7719 11.6039 49.7339 11.5679 49.6888 11.5422C49.5573 11.4738 49.4092 11.4415 49.2602 11.4485C49.1786 11.4409 49.0963 11.4493 49.0181 11.473C48.9398 11.4967 48.8672 11.5353 48.8045 11.5866C48.7085 11.6856 48.6475 11.8119 48.6303 11.9469H47.7744C47.7776 11.7832 47.8076 11.621 47.8633 11.4665C47.9159 11.3207 48.0061 11.1905 48.1252 11.0882C48.262 10.9754 48.4226 10.8934 48.5957 10.848C48.8261 10.7859 49.0645 10.7572 49.3034 10.7627C49.539 10.7573 49.7739 10.7873 50 10.8516C50.1724 10.9003 50.33 10.9889 50.4595 11.1098C50.5767 11.2271 50.6616 11.3713 50.7065 11.5289C50.7608 11.7136 50.787 11.905 50.7843 12.097V14.2373L49.9259 14.2361ZM49.8617 12.5775C49.8032 12.6294 49.733 12.6673 49.6567 12.688C49.5286 12.724 49.3988 12.7536 49.2676 12.7768C49.0735 12.801 48.8874 12.867 48.723 12.9702C48.6726 13.0109 48.6328 13.0625 48.6069 13.121C48.5809 13.1794 48.5695 13.243 48.5735 13.3065C48.5735 13.5587 48.7229 13.6848 49.0194 13.6848C49.132 13.6858 49.2439 13.6662 49.3491 13.6272C49.4456 13.5902 49.5343 13.5365 49.611 13.4686C49.6841 13.4017 49.7439 13.3223 49.7876 13.2344C49.832 13.1454 49.8548 13.0476 49.8543 12.9486L49.8617 12.5775Z" fill="#2E281F"/>
<path d="M51.1812 14.2364V9.61243H52.0865V11.2939C52.199 11.1281 52.3527 10.9926 52.5334 10.9C52.7142 10.8074 52.916 10.7607 53.1202 10.7642C53.3294 10.7605 53.5366 10.804 53.7254 10.8915C53.9018 10.976 54.0553 11.0994 54.1738 11.2519C54.3021 11.4182 54.3972 11.6064 54.4541 11.8067C54.5196 12.0362 54.5516 12.2736 54.5492 12.5117C54.5536 12.7706 54.5152 13.0285 54.4356 13.2756C54.3696 13.4831 54.264 13.6766 54.1244 13.8461C53.9962 14.0004 53.833 14.1237 53.6476 14.2064C53.4572 14.2887 53.2507 14.3296 53.0424 14.3265C52.8491 14.3368 52.6565 14.2955 52.4856 14.207C52.3147 14.1185 52.172 13.9862 52.0729 13.8245L52.0655 14.2376L51.1812 14.2364ZM52.83 13.5963C52.9412 13.5977 53.0511 13.5723 53.1498 13.5225C53.2485 13.4726 53.3329 13.3998 53.3957 13.3104C53.5505 13.094 53.6277 12.834 53.6155 12.5706C53.6155 11.874 53.3512 11.5257 52.8226 11.5257C52.3088 11.5257 52.0519 11.8924 52.0519 12.6258C52.0393 12.8781 52.118 13.1267 52.2742 13.3285C52.3387 13.4124 52.4227 13.4803 52.5192 13.5269C52.6158 13.5734 52.7222 13.5972 52.83 13.5963Z" fill="#2E281F"/>
<path d="M55.8142 9.61243H54.894V14.2364H55.8142V9.61243Z" fill="#2E281F"/>
<path d="M57.0449 12.7796C57.0457 13.0035 57.1269 13.2202 57.2746 13.3921C57.3431 13.467 57.4278 13.5261 57.5226 13.5654C57.6174 13.6046 57.72 13.623 57.823 13.6191C57.9628 13.6217 58.1007 13.5872 58.2219 13.5194C58.2764 13.4898 58.3242 13.4499 58.3626 13.402C58.401 13.3542 58.4292 13.2994 58.4454 13.2408H59.394C59.3035 13.5634 59.1037 13.8469 58.8271 14.0455C58.5459 14.2377 58.2085 14.3367 57.865 14.3277C56.7048 14.3277 56.1247 13.7128 56.1247 12.4829C56.1214 12.2423 56.1593 12.0028 56.2371 11.7743C56.3074 11.5732 56.4197 11.3884 56.5669 11.2314C56.7133 11.0781 56.8937 10.959 57.0943 10.8831C57.3224 10.7999 57.5645 10.7592 57.8081 10.763C58.0379 10.7487 58.2678 10.7866 58.4799 10.8738C58.6919 10.9609 58.8801 11.0949 59.0296 11.2651C59.3383 11.7105 59.484 12.2439 59.4434 12.7796H57.0449ZM58.4948 12.2151C58.4923 12.1032 58.4698 11.9927 58.4282 11.8884C58.3916 11.8008 58.3374 11.7212 58.2688 11.6542C58.2037 11.5934 58.1263 11.5463 58.0416 11.5161C57.9575 11.4869 57.869 11.4718 57.7797 11.4716C57.6906 11.471 57.6023 11.4881 57.5203 11.522C57.4383 11.5559 57.3644 11.6058 57.303 11.6686C57.1605 11.8176 57.0785 12.0117 57.072 12.2151H58.4948Z" fill="#2E281F"/>
<path d="M19.066 9.6154C19.066 11.4423 18.5089 13.2283 17.4651 14.7473C16.4213 16.2664 14.9378 17.4503 13.2021 18.1495C11.4663 18.8486 9.5564 19.0315 7.71376 18.6751C5.87112 18.3187 4.17855 17.4389 2.85009 16.1471C1.52162 14.8553 0.616921 13.2093 0.250397 11.4175C-0.116126 9.62564 0.0719869 7.76835 0.790948 6.08047C1.50991 4.39258 2.72743 2.94993 4.28954 1.93493C5.85165 0.919928 7.6882 0.378174 9.56694 0.378174C12.0862 0.378174 14.5024 1.35138 16.2838 3.08369C18.0652 4.81601 19.066 7.16553 19.066 9.6154Z" fill="#FF0015"/>
<path d="M3.89908 12.1135V10.0105H1.74756V8.96435H3.89908V6.87213H4.97484V8.96435H7.13748V10.0105H4.97484V12.1135H3.89908Z" fill="white"/>
<path d="M9.0733 13.3043V8.20109H7.51709V7.19942C7.79387 7.2043 8.07029 7.17811 8.34089 7.12135C8.53778 7.08048 8.7232 6.99852 8.88433 6.88114C9.02373 6.7755 9.1337 6.63758 9.20422 6.48C9.28255 6.30128 9.33092 6.11151 9.34749 5.91791H10.5603V13.3079L9.0733 13.3043Z" fill="white"/>
<path d="M15.1616 9.26551C15.3322 9.34214 15.4887 9.44562 15.6247 9.57178C15.7656 9.70108 15.887 9.84907 15.9854 10.0114C16.0861 10.1786 16.163 10.3584 16.2138 10.5458C16.2676 10.7417 16.2946 10.9436 16.2941 11.1463C16.2976 11.4756 16.2433 11.8029 16.1336 12.1144C16.0326 12.4028 15.8663 12.6655 15.6469 12.8831C15.4159 13.1068 15.1366 13.2778 14.8293 13.3839C14.4578 13.509 14.0664 13.5691 13.6733 13.5616C13.2817 13.5687 12.8921 13.5064 12.5234 13.3779C12.2138 13.2691 11.9311 13.0985 11.6934 12.8771C11.4747 12.6665 11.306 12.4119 11.1994 12.1312C11.0872 11.8377 11.0311 11.5267 11.0339 11.2136C11.0237 10.8193 11.1268 10.43 11.3315 10.0894C11.5448 9.7566 11.8553 9.49316 12.2233 9.33277C11.9218 9.18814 11.6857 8.94058 11.56 8.63737C11.4331 8.34289 11.3668 8.02706 11.3649 7.70776C11.3628 7.42995 11.4213 7.15487 11.5366 6.90066C11.649 6.6553 11.8131 6.43558 12.0183 6.2557C12.2318 6.06897 12.4799 5.92346 12.7494 5.82693C13.0462 5.7203 13.3606 5.66738 13.677 5.67079C14.0133 5.66491 14.348 5.71779 14.665 5.82693C14.9304 5.91934 15.1737 6.06316 15.3802 6.24969C15.5694 6.42587 15.7158 6.64087 15.8087 6.87904C15.9065 7.12945 15.9551 7.39548 15.952 7.66332C15.9533 7.98287 15.893 8.29982 15.7742 8.59773C15.6619 8.88788 15.4414 9.12629 15.1566 9.26551M13.6572 12.3702C13.8136 12.3846 13.9712 12.363 14.1173 12.307C14.2635 12.2511 14.394 12.1625 14.4983 12.0483C14.6847 11.7838 14.7751 11.4664 14.7552 11.1463C14.7688 10.847 14.6759 10.5522 14.4921 10.3116C14.3885 10.1983 14.259 10.11 14.114 10.0539C13.9691 9.99784 13.8126 9.97545 13.6572 9.98854C13.5044 9.9748 13.3504 9.99587 13.2074 10.0501C13.0644 10.1043 12.9364 10.1901 12.8334 10.3008C12.6562 10.5461 12.5692 10.8423 12.5864 11.1415C12.5671 11.4602 12.6537 11.7764 12.8334 12.0435C12.9349 12.1581 13.0634 12.2472 13.2079 12.3033C13.3524 12.3593 13.5086 12.3806 13.6634 12.3654M13.6634 8.83794C13.794 8.84773 13.9252 8.82762 14.0463 8.77923C14.1675 8.73084 14.2754 8.65552 14.3612 8.5593C14.5204 8.35502 14.6012 8.10312 14.5897 7.84708C14.6038 7.58554 14.5229 7.32749 14.3612 7.11805C14.1734 6.94319 13.9234 6.84558 13.6634 6.84558C13.4034 6.84558 13.1534 6.94319 12.9656 7.11805C12.8034 7.32733 12.7221 7.58539 12.7358 7.84708C12.7247 8.10327 12.806 8.35518 12.9656 8.5593C13.0513 8.65567 13.1591 8.73109 13.2803 8.7795C13.4015 8.8279 13.5328 8.84792 13.6634 8.83794Z" fill="white"/>
</g>
<defs>
<clipPath id="clip0_7_1030">
<rect width="59.5288" height="18.4744" fill="white" transform="translate(0.0678711 0.378174)"/>
</clipPath>
</defs>
</svg>
