<svg width="67" height="19" viewBox="0 0 67 19" fill="none" xmlns="http://www.w3.org/2000/svg">
<g clip-path="url(#clip0_7_759)">
<path d="M16.3782 2.5478C16.3208 3.57416 15.4781 4.26079 15.0347 5.12499C14.8469 5.63816 14.3974 5.94607 14.0771 6.40999C13.7825 6.70869 13.5108 7.02913 13.2643 7.3686C13.3074 7.60775 13.5619 7.67651 13.7076 7.84791C14.034 8.04395 14.07 8.41446 14.3543 8.63821C14.5205 8.63821 14.5205 8.88556 14.7022 8.85682C15.0692 9.26456 15.4086 9.69624 15.7183 10.149C15.764 10.317 15.8574 10.4681 15.9872 10.5842C16.2407 10.9537 16.4511 11.3468 16.7118 11.7245C16.7487 12.1453 17.1049 12.4265 17.2137 12.8196C17.3728 13.0249 17.4374 13.2773 17.5842 13.4878C17.808 13.9814 17.9609 14.4967 18.2288 14.9688C18.2447 15.0202 18.2465 15.0749 18.234 15.1273C18.2216 15.1796 18.1953 15.2277 18.1579 15.2664C18.0553 15.3455 17.9752 15.2007 17.8603 15.2233C17.2623 14.9911 16.6883 14.7013 16.1463 14.3581C15.5797 13.9014 14.9557 13.575 14.4015 13.0957C14.1839 13.0372 14.0936 12.7878 13.8883 12.6851C13.3525 12.3526 12.9235 11.8733 12.3785 11.5613C12.1312 11.3735 11.8848 11.1918 11.6375 10.9958C11.4497 10.9721 11.384 10.7556 11.2023 10.6878C10.7918 10.4405 10.4264 10.0997 10.0117 9.86676C9.97581 9.92424 10.0117 10.0115 9.97581 10.072C9.69972 10.342 9.77054 10.7556 9.57758 11.0532C9.56937 11.4802 9.26968 11.7943 9.14857 12.1709C8.80782 12.7806 8.51017 13.4026 8.15403 14.0071C7.78524 14.6992 7.3155 15.3326 6.76023 15.8864C6.62019 16.0455 6.45304 16.1786 6.26655 16.2794C6.1865 16.2569 6.07052 16.2712 6.04896 16.1707C5.96993 16.0188 6.07052 15.7858 5.96172 15.6472C6.0145 15.4239 6.04137 15.1952 6.04178 14.9657L6.00586 14.8631C6.01304 14.5439 6.17213 14.275 6.10849 13.9486C6.19085 13.7396 6.24002 13.519 6.25424 13.2948C6.36316 13.0146 6.4366 12.7219 6.47285 12.4234C6.56679 12.2378 6.60425 12.0287 6.58062 11.822C6.65349 11.6331 6.66888 11.4114 6.86287 11.2698C6.89263 11.1456 6.86287 11.0235 6.88442 10.8921C7.08251 10.2968 7.32165 9.7241 7.47355 9.11341C7.47355 9.07031 7.43044 9.05491 7.40068 9.04875C6.99147 9.0775 6.58036 9.06305 6.17418 9.00565C5.52256 8.99201 4.87371 8.9164 4.23642 8.77985C3.96475 8.7719 3.69673 8.71523 3.44509 8.61255C3.28673 8.6415 3.12347 8.6266 2.97297 8.56944C2.67532 8.42473 2.31199 8.44628 2.01435 8.28617C1.78958 8.31491 1.63049 8.16916 1.42727 8.14864C1.23124 8.16198 1.11937 7.99674 0.983887 7.88692V7.8202C1.37743 7.40312 1.88927 7.11658 2.45055 6.99912C2.96373 6.84106 3.53849 6.82669 4.0763 6.71687C4.41705 6.65939 4.78757 6.75279 5.12935 6.69531C5.74516 6.70968 6.34148 6.81232 6.95011 6.82669C7.14507 6.88265 7.34463 6.92112 7.54642 6.94164L7.53821 6.85542L6.9655 6.07129C6.67708 5.60018 6.42489 5.10782 6.21113 4.59846C6.07976 4.43835 6.20394 4.19818 6.10233 4.0237C6.09515 3.94467 6.15981 3.88514 6.19676 3.81843C6.31992 3.76711 6.45745 3.85333 6.58062 3.77327C6.95011 3.86154 7.29291 3.99189 7.6624 4.06373C8.05803 4.20047 8.43385 4.3889 8.7801 4.62412C9.26076 4.8695 9.69354 5.19904 10.0579 5.59711C10.1057 5.63416 10.1617 5.65927 10.2211 5.67033C10.2805 5.6814 10.3418 5.67811 10.3997 5.66074C10.5023 5.64637 10.5229 5.52424 10.6173 5.48729C11.0668 5.20401 11.5759 5.04493 12.0172 4.73189C12.1999 4.55022 12.4894 4.52662 12.5982 4.28132C12.7288 4.20588 12.8662 4.14299 13.0087 4.09349C13.2579 3.90193 13.5195 3.72707 13.7918 3.57005C13.9305 3.54558 14.0606 3.48585 14.1695 3.3966C14.6201 3.15027 15.0932 2.94603 15.5192 2.66275C15.6146 2.40924 15.8979 2.46672 16.1001 2.40924C16.2027 2.43182 16.3403 2.41745 16.3834 2.54677" fill="#0097D9"/>
<path d="M5.61498 9.5644C5.76072 9.66703 5.75353 9.87231 5.88388 9.97494L5.94854 10.4235L5.62216 10.8987C5.4085 11.032 5.16037 11.0997 4.90858 11.0933C4.65679 11.087 4.41241 11.0068 4.20579 10.8627C4.10465 10.7669 4.0311 10.6457 3.99282 10.5117C3.95455 10.3778 3.95295 10.236 3.9882 10.1012L4.14112 9.69064C4.22837 9.63214 4.3464 9.61777 4.40182 9.51616C4.62328 9.42461 4.85925 9.37317 5.09872 9.36426C5.2732 9.42379 5.53389 9.32731 5.6119 9.56953" fill="#F8BD0D"/>
<path d="M4.54023 12.2163C4.67161 12.2163 4.76603 12.3107 4.88919 12.2881C5.06265 12.3538 5.04212 12.5642 5.22276 12.6145C5.35422 12.8929 5.45405 13.1852 5.5204 13.4859C5.47011 13.6604 5.61483 13.762 5.56454 13.9221L5.61483 13.9498C5.62528 14.1246 5.59797 14.2996 5.53477 14.463C5.53153 14.7554 5.44346 15.0407 5.28126 15.2841C5.18581 15.3415 5.1427 15.5088 5.01236 15.4801C4.78143 15.553 4.75885 15.9009 4.47557 15.8578C4.29391 15.9943 4.04655 15.9153 3.82897 15.9225C3.7058 15.8578 3.53132 15.8722 3.44408 15.7634C3.22345 15.6581 3.02026 15.5197 2.84161 15.3528C2.76976 15.1927 2.60247 15.1209 2.58091 14.9423C2.64557 14.7226 2.50907 14.5266 2.56654 14.3101L2.52344 13.9457L2.65994 13.3217C2.89293 13.1985 2.82827 12.9111 3.06022 12.829C3.20597 12.4944 3.55287 12.4185 3.82281 12.2553C3.92544 12.2327 4.04655 12.2922 4.13071 12.1978C4.27543 12.1763 4.41296 12.3282 4.54126 12.2122" fill="#E86421"/>
<path d="M64.9301 14.8718H24.6743V15.0781H64.9301V14.8718Z" fill="#1E120D"/>
<path fill-rule="evenodd" clip-rule="evenodd" d="M21.2772 3.58997C20.9641 3.58997 20.7086 3.97485 20.7086 4.44287C20.6934 4.55631 20.7082 4.67176 20.7516 4.77767C20.795 4.88357 20.8655 4.97623 20.9559 5.04637C21.154 5.13053 21.4096 5.32143 21.4096 5.89927C21.4088 6.15353 21.3446 6.40356 21.2227 6.6267C21.1008 6.84984 20.9252 7.03903 20.7116 7.17709C20.6213 7.27254 20.6542 7.57532 20.7938 7.60303C21.2233 7.39306 21.5784 7.05675 21.8114 6.63921C22.0444 6.22167 22.1441 5.74287 22.0972 5.26704C22.0972 4.07133 21.62 3.58997 21.2772 3.58997ZM23.0825 3.58997C22.7685 3.58997 22.5129 3.97485 22.5129 4.44287C22.498 4.55699 22.5134 4.67303 22.5575 4.77933C22.6017 4.88562 22.673 4.97842 22.7644 5.04842C22.9625 5.13258 23.218 5.32349 23.218 5.90132C23.2169 6.15586 23.1522 6.40609 23.0298 6.62925C22.9073 6.85241 22.7311 7.04144 22.517 7.17914C22.4267 7.27459 22.4595 7.57737 22.6001 7.60508C23.0294 7.39484 23.3842 7.05844 23.617 6.64095C23.8498 6.22345 23.9494 5.74479 23.9026 5.26909C23.9026 4.07338 23.4243 3.59202 23.0866 3.59202" fill="#1E120D"/>
<path fill-rule="evenodd" clip-rule="evenodd" d="M24.7466 4.66252C25.1869 4.66252 25.4199 4.99301 25.4476 5.55648C25.4886 6.07787 25.5574 7.10833 25.5574 7.90581V12.3582C25.5654 12.4354 25.5572 12.5134 25.5333 12.5873C25.5095 12.6612 25.4704 12.7293 25.4188 12.7873C25.3671 12.8452 25.3039 12.8917 25.2332 12.9239C25.1625 12.956 25.0859 12.9731 25.0083 12.974V13.248C25.4065 13.248 25.7914 13.208 26.1896 13.208C26.5879 13.208 27.0107 13.248 27.4264 13.248V12.974C27.0005 12.9052 26.8906 12.6589 26.8906 12.1909V6.85379C26.8906 5.58932 26.9307 4.24274 26.945 3.50171H26.671C26.1064 3.93181 25.4462 4.21913 24.7466 4.33922V4.66252Z" fill="#1E120D"/>
<path fill-rule="evenodd" clip-rule="evenodd" d="M31.1108 12.344C30.8325 12.5109 30.5112 12.5923 30.187 12.578C30.0434 12.5754 29.9016 12.5446 29.7699 12.4871C29.6381 12.4297 29.519 12.3468 29.4194 12.2433C29.3198 12.1397 29.2415 12.0176 29.1892 11.8837C29.1369 11.7499 29.1115 11.607 29.1145 11.4634C29.1081 11.2957 29.1379 11.1286 29.2018 10.9734C29.2656 10.8182 29.3621 10.6785 29.4846 10.5639C29.6072 10.4492 29.7529 10.3623 29.912 10.3088C30.0711 10.2554 30.2398 10.2368 30.4067 10.2543C30.6278 10.2588 30.8483 10.2818 31.0656 10.3231L31.1108 12.344ZM28.7152 8.99085C28.8483 8.75163 29.0473 8.55572 29.2886 8.42651C29.5299 8.2973 29.8033 8.24024 30.0762 8.26214C31.0112 8.26214 31.0646 9.08323 31.0646 9.82939C30.8726 9.82939 30.6397 9.78731 30.42 9.78731C29.1689 9.78731 27.7812 10.3508 27.7812 11.8072C27.7949 12.0352 27.8542 12.2581 27.9557 12.4628C28.0572 12.6674 28.1988 12.8495 28.3721 12.9983C28.5454 13.1471 28.7469 13.2595 28.9645 13.3289C29.1822 13.3983 29.4115 13.4232 29.639 13.4021C30.2038 13.3524 30.7359 13.1154 31.1508 12.7289C31.266 12.9217 31.4264 13.0837 31.618 13.201C31.8096 13.3183 32.0269 13.3873 32.251 13.4021L33.2774 12.5811L33.0721 12.3758C32.9784 12.4046 32.8816 12.4225 32.7837 12.4292C32.482 12.4292 32.3732 12.2516 32.3732 11.6204V11.1349C32.3875 10.3508 32.4286 9.63643 32.4286 9.14276C32.4286 7.76744 31.3848 7.439 30.1614 7.439C29.5616 7.4347 28.9645 7.51803 28.3889 7.68635V8.99085H28.7152Z" fill="#1E120D"/>
<path fill-rule="evenodd" clip-rule="evenodd" d="M43.5544 4.05823C42.4433 3.688 41.279 3.50251 40.1078 3.50913C39.4337 3.4631 38.7574 3.55622 38.1208 3.78272C37.4842 4.00922 36.901 4.36424 36.4075 4.82572C35.9139 5.28721 35.5206 5.84528 35.2519 6.46524C34.9833 7.0852 34.845 7.75381 34.8457 8.42949C34.8457 10.903 36.6459 13.4299 40.7411 13.4299C41.6423 13.4148 42.5398 13.3092 43.4199 13.1148L43.8469 11.5896L43.4199 11.4121C43.1297 11.867 42.7262 12.2387 42.249 12.4906C41.7718 12.7425 41.2373 12.866 40.698 12.849C39.5577 12.849 36.7547 12.189 36.7547 8.31351C36.7547 6.0042 37.7441 4.08183 40.1345 4.08183C40.7536 4.03326 41.3723 4.18159 41.902 4.50564C42.4318 4.82969 42.8456 5.31287 43.0843 5.88617H43.6611L43.5544 4.05823Z" fill="#1E120D"/>
<path fill-rule="evenodd" clip-rule="evenodd" d="M47.8532 12.344C47.5749 12.5107 47.2537 12.5921 46.9295 12.578C46.7859 12.5753 46.6442 12.5444 46.5125 12.4869C46.3808 12.4294 46.2618 12.3465 46.1622 12.243C46.0626 12.1395 45.9843 12.0173 45.932 11.8836C45.8796 11.7498 45.8541 11.607 45.857 11.4634C45.8506 11.2957 45.8804 11.1286 45.9442 10.9734C46.0081 10.8182 46.1046 10.6785 46.2271 10.5639C46.3496 10.4492 46.4954 10.3623 46.6545 10.3088C46.8135 10.2554 46.9823 10.2368 47.1492 10.2543C47.3707 10.2588 47.5914 10.2818 47.8091 10.3231L47.8532 12.344ZM45.4618 8.99086C45.5946 8.75163 45.7934 8.55569 46.0346 8.42646C46.2758 8.29724 46.549 8.24019 46.8217 8.26214C47.7578 8.26214 47.8122 9.08323 47.8122 9.82939C47.6203 9.82939 47.3862 9.78731 47.1656 9.78731C45.9144 9.78731 44.5278 10.3508 44.5278 11.8072C44.5415 12.0349 44.6007 12.2576 44.702 12.462C44.8033 12.6664 44.9447 12.8484 45.1176 12.9971C45.2906 13.1459 45.4917 13.2584 45.709 13.328C45.9262 13.3975 46.1553 13.4228 46.3825 13.4021C46.9474 13.3528 47.4796 13.1158 47.8943 12.7289C48.0092 12.9218 48.1693 13.0839 48.3608 13.2012C48.5523 13.3185 48.7694 13.3875 48.9935 13.4021L50.025 12.5811L49.8197 12.3758C49.726 12.4046 49.6292 12.4225 49.5313 12.4292C49.2286 12.4292 49.1208 12.2516 49.1208 11.6204V11.1349C49.1341 10.3508 49.1752 9.63644 49.1752 9.14276C49.1752 7.76744 48.1303 7.439 46.908 7.439C46.3086 7.43465 45.7117 7.51799 45.1365 7.68636V8.99086H45.4618Z" fill="#1E120D"/>
<path fill-rule="evenodd" clip-rule="evenodd" d="M52.0065 7.4388C51.4536 7.75644 50.8555 7.98797 50.2329 8.12543V8.40049C50.3618 8.40195 50.4871 8.44384 50.5909 8.52026C50.6948 8.59668 50.772 8.70377 50.8118 8.82643C50.9716 9.42183 51.0361 10.0388 51.0027 10.6544V12.3581C51.0027 12.8251 50.8508 12.8939 50.5203 12.9739V13.248C50.8918 13.2357 51.2644 13.208 51.6349 13.208C52.0455 13.208 52.456 13.248 52.8665 13.248V12.9739C52.5515 12.8918 52.3308 12.8231 52.3308 12.3581V10.3516C52.3308 9.22261 52.2764 8.01561 52.2764 7.4388H52.0065ZM50.8508 5.81715C50.8392 5.96921 50.8738 6.12123 50.9499 6.25336C51.0261 6.38549 51.1403 6.4916 51.2776 6.55783C51.415 6.62407 51.5692 6.64736 51.72 6.62466C51.8708 6.60196 52.0112 6.53433 52.123 6.4306C52.2348 6.32686 52.3127 6.19184 52.3466 6.04315C52.3805 5.89446 52.3688 5.73901 52.313 5.59708C52.2571 5.45516 52.1599 5.33335 52.0338 5.24756C51.9077 5.16176 51.7587 5.11597 51.6062 5.11615C51.5104 5.11203 51.4148 5.12695 51.3248 5.16004C51.2349 5.19313 51.1524 5.24375 51.0821 5.30894C51.0119 5.37414 50.9552 5.45263 50.9155 5.53987C50.8758 5.6271 50.8538 5.72135 50.8508 5.81715Z" fill="#1E120D"/>
<path fill-rule="evenodd" clip-rule="evenodd" d="M53.2549 13.2505C53.5567 13.2371 53.844 13.2094 54.1468 13.2094C54.504 13.2094 54.8755 13.2371 55.2327 13.2505V12.9754C55.0541 12.9487 54.9453 12.8799 54.9453 12.6603C54.972 12.4793 55.0371 12.3061 55.1362 12.1523L55.8783 11.1485L56.6204 12.2066C56.723 12.3468 56.7979 12.5053 56.841 12.6736C56.8374 12.7484 56.8076 12.8195 56.757 12.8746C56.7064 12.9298 56.6381 12.9654 56.5639 12.9754V13.2505C56.9744 13.2371 57.3758 13.2094 57.7894 13.2094C58.203 13.2094 58.5992 13.2371 59.0128 13.2505V12.9754C58.66 12.8212 58.3593 12.5686 58.1465 12.2477L56.6624 10.1806L57.8284 8.6965C58.0881 8.28723 58.4904 7.98882 58.9574 7.85899V7.59009C58.6002 7.60343 58.2287 7.63012 57.8715 7.63012C57.5143 7.63012 57.1438 7.60343 56.7743 7.59009V7.86413C56.9919 7.94623 57.1571 8.04271 57.1571 8.30443C57.1303 8.4709 57.0594 8.62717 56.9519 8.75706L56.2796 9.65102L55.5242 8.62466C55.4251 8.49803 55.3673 8.34392 55.359 8.18332C55.359 7.97805 55.4831 7.95034 55.6463 7.86823V7.59009C55.2358 7.60343 54.8253 7.63012 54.4147 7.63012C54.0042 7.63012 53.5751 7.60343 53.1636 7.59009V7.86413C53.4768 7.98074 53.7429 8.19713 53.921 8.47994L55.5016 10.624L54.1674 12.3288C53.9601 12.6524 53.6357 12.8833 53.2621 12.9733L53.2549 13.2505Z" fill="#1E120D"/>
<path fill-rule="evenodd" clip-rule="evenodd" d="M62.3815 12.344C62.1033 12.511 61.782 12.5924 61.4578 12.578C61.1686 12.5712 60.8938 12.4501 60.6938 12.2412C60.4937 12.0323 60.3846 11.7526 60.3904 11.4633C60.3842 11.2957 60.4141 11.1287 60.478 10.9736C60.5419 10.8185 60.6384 10.6789 60.7609 10.5643C60.8834 10.4497 61.029 10.3627 61.188 10.3092C61.3471 10.2557 61.5157 10.237 61.6826 10.2543C61.9044 10.2589 62.1255 10.2819 62.3435 10.3231L62.3815 12.344ZM59.9901 8.99085C60.1233 8.75179 60.3224 8.55603 60.5637 8.42685C60.8049 8.29766 61.0782 8.24049 61.351 8.26213C62.2861 8.26213 62.3415 9.08322 62.3415 9.82938C62.1485 9.82938 61.9145 9.7873 61.6938 9.7873C60.4448 9.7873 59.0571 10.3508 59.0571 11.8072C59.0706 12.0349 59.1297 12.2575 59.231 12.4619C59.3322 12.6663 59.4734 12.8483 59.6463 12.9971C59.8192 13.1458 60.0202 13.2583 60.2374 13.3279C60.4546 13.3975 60.6836 13.4227 60.9107 13.4021C61.476 13.3526 62.0084 13.1156 62.4236 12.7288C62.5382 12.9218 62.6981 13.0839 62.8895 13.2012C63.0808 13.3185 63.2978 13.3875 63.5218 13.4021L64.5543 12.581L64.349 12.3758C64.2553 12.4046 64.1585 12.4225 64.0606 12.4291C63.7599 12.4291 63.6501 12.2516 63.6501 11.6204V11.1349C63.6634 10.3508 63.7055 9.63643 63.7055 9.14275C63.7055 7.76743 62.6607 7.43899 61.4393 7.43899C60.8386 7.4348 60.2404 7.51813 59.6637 7.68635V8.99085H59.9901Z" fill="#1E120D"/>
<path fill-rule="evenodd" clip-rule="evenodd" d="M64.2993 3.58997C63.9862 3.58997 63.7296 3.97485 63.7296 4.44287C63.7146 4.55641 63.7296 4.67191 63.7732 4.77783C63.8167 4.88374 63.8874 4.97634 63.978 5.04637C64.1771 5.13053 64.4317 5.32143 64.4317 5.89927C64.4306 6.15392 64.3657 6.40424 64.2431 6.62743C64.1205 6.85062 63.944 7.03958 63.7296 7.17709C63.6404 7.27254 63.6722 7.57532 63.8138 7.60303C64.243 7.39275 64.5977 7.05631 64.8303 6.6388C65.0629 6.22128 65.1623 5.74265 65.1152 5.26704C65.1152 4.07133 64.6369 3.58997 64.2993 3.58997ZM66.1046 3.58997C65.7967 3.58997 65.5371 3.97485 65.5371 4.44287C65.5217 4.55622 65.5364 4.67161 65.5797 4.77751C65.6229 4.88341 65.6931 4.97611 65.7834 5.04637C65.9815 5.13053 66.2381 5.32143 66.2381 5.89927C66.237 6.15381 66.1723 6.40403 66.0498 6.6272C65.9274 6.85036 65.7511 7.03939 65.5371 7.17709C65.4457 7.27254 65.4775 7.57532 65.6181 7.60303C66.0476 7.39302 66.4026 7.05667 66.6354 6.63911C66.8682 6.22156 66.9677 5.74278 66.9206 5.26704C66.9206 4.07133 66.4423 3.58997 66.1046 3.58997Z" fill="#1E120D"/>
</g>
<defs>
<clipPath id="clip0_7_759">
<rect width="65.6869" height="18.4744" fill="white" transform="translate(0.983887 0.356506)"/>
</clipPath>
</defs>
</svg>
