<svg width="37" height="19" viewBox="0 0 37 19" fill="none" xmlns="http://www.w3.org/2000/svg">
<g clip-path="url(#clip0_7_671)">
<path fill-rule="evenodd" clip-rule="evenodd" d="M18.096 16.4573C19.0444 15.5898 19.8018 14.5343 20.32 13.358C20.8382 12.1818 21.1058 10.9105 21.1058 9.62521C21.1058 8.33988 20.8382 7.06863 20.32 5.89238C19.8018 4.71613 19.0444 3.66066 18.096 2.79315C16.4195 1.2567 14.2275 0.405383 11.9535 0.407597C9.50879 0.407597 7.16425 1.37874 5.43562 3.10737C3.70698 4.83601 2.73584 7.18055 2.73584 9.62521C2.73584 12.0699 3.70698 14.4144 5.43562 16.143C7.16425 17.8717 9.50879 18.8428 11.9535 18.8428C14.2275 18.845 16.4195 17.9937 18.096 16.4573Z" fill="#0097D9"/>
<path fill-rule="evenodd" clip-rule="evenodd" d="M24.2421 0.407597C21.9684 0.405443 19.7767 1.25677 18.1006 2.79315C17.7688 3.09694 17.4597 3.4246 17.1758 3.77352H19.0276C19.2811 4.08504 19.5143 4.4125 19.7258 4.75388H16.4786C16.2838 5.07002 16.1077 5.39738 15.9514 5.73425H20.2476C20.396 6.05329 20.5258 6.38062 20.6365 6.71461H15.5636C15.4574 7.03637 15.3687 7.36364 15.2979 7.69498H20.9023C21.2485 9.31641 21.1568 11.0008 20.6365 12.575H15.5636C15.6739 12.909 15.8034 13.2363 15.9514 13.5554H20.2476C20.0921 13.8925 19.9164 14.2198 19.7215 14.5358H16.4786C16.6894 14.8774 16.9223 15.2048 17.1758 15.5161H19.0276C18.7438 15.8645 18.4355 16.1921 18.105 16.4965C19.781 18.0329 21.9727 18.8842 24.2464 18.882C26.6911 18.882 29.0356 17.9109 30.7642 16.1823C32.4929 14.4536 33.464 12.1091 33.464 9.66442C33.464 7.21976 32.4929 4.87523 30.7642 3.14659C29.0356 1.41795 26.6911 0.446811 24.2464 0.446811" fill="#E40620"/>
<path fill-rule="evenodd" clip-rule="evenodd" d="M32.1699 14.7631C32.1701 14.7045 32.1877 14.6474 32.2204 14.5988C32.2531 14.5502 32.2994 14.5124 32.3536 14.4901C32.4077 14.4679 32.4673 14.4622 32.5247 14.4737C32.5821 14.4853 32.6348 14.5136 32.6761 14.5551C32.7174 14.5965 32.7455 14.6493 32.7569 14.7068C32.7682 14.7642 32.7623 14.8237 32.7398 14.8778C32.7174 14.9319 32.6794 14.9781 32.6307 15.0106C32.582 15.0431 32.5248 15.0605 32.4662 15.0605C32.4272 15.0605 32.3886 15.0528 32.3526 15.0378C32.3166 15.0229 32.2838 15.0009 32.2563 14.9733C32.2288 14.9457 32.207 14.9129 32.1922 14.8768C32.1773 14.8407 32.1698 14.8021 32.1699 14.7631ZM32.4662 14.9897C32.5111 14.9899 32.555 14.9768 32.5924 14.952C32.6298 14.9272 32.659 14.8919 32.6763 14.8506C32.6936 14.8092 32.6983 14.7636 32.6897 14.7196C32.681 14.6755 32.6595 14.6351 32.6279 14.6033C32.5963 14.5715 32.5559 14.5498 32.5119 14.541C32.4679 14.5321 32.4223 14.5365 32.3808 14.5537C32.3394 14.5708 32.3039 14.5998 32.279 14.6371C32.254 14.6744 32.2407 14.7182 32.2407 14.7631C32.2406 14.7928 32.2463 14.8222 32.2576 14.8497C32.2688 14.8772 32.2854 14.9022 32.3064 14.9232C32.3273 14.9443 32.3522 14.961 32.3797 14.9724C32.4071 14.9838 32.4365 14.9897 32.4662 14.9897ZM32.4259 14.8938H32.3649V14.6324H32.4738C32.4968 14.6301 32.5199 14.6346 32.5403 14.6455C32.5506 14.6529 32.5589 14.6628 32.5646 14.6742C32.5703 14.6855 32.5731 14.6981 32.573 14.7108C32.5732 14.7252 32.569 14.7394 32.561 14.7515C32.5531 14.7635 32.5417 14.7729 32.5283 14.7783L32.5762 14.8938H32.5087L32.4695 14.7903H32.4248V14.7457H32.4586C32.4712 14.7471 32.484 14.7452 32.4956 14.7402C32.5002 14.7368 32.5039 14.7324 32.5064 14.7273C32.5088 14.7221 32.51 14.7165 32.5098 14.7108C32.5098 14.7055 32.5086 14.7002 32.5061 14.6954C32.5036 14.6907 32.5 14.6866 32.4956 14.6836C32.4828 14.6803 32.4693 14.6803 32.4564 14.6836H32.4248V14.9014L32.4259 14.8938Z" fill="#E40620"/>
<path fill-rule="evenodd" clip-rule="evenodd" d="M30.2363 11.6239C30.2365 11.5653 30.2541 11.5081 30.2868 11.4596C30.3195 11.411 30.3658 11.3732 30.42 11.3509C30.4741 11.3287 30.5337 11.3229 30.5911 11.3345C30.6485 11.3461 30.7012 11.3744 30.7425 11.4158C30.7838 11.4573 30.8119 11.5101 30.8233 11.5676C30.8346 11.625 30.8287 11.6845 30.8062 11.7386C30.7838 11.7927 30.7458 11.8389 30.6971 11.8714C30.6484 11.9039 30.5912 11.9213 30.5326 11.9213C30.4936 11.9213 30.455 11.9136 30.419 11.8986C30.383 11.8836 30.3503 11.8617 30.3227 11.8341C30.2952 11.8065 30.2734 11.7737 30.2586 11.7376C30.2437 11.7015 30.2362 11.6629 30.2363 11.6239ZM30.5326 11.8504C30.5775 11.8507 30.6214 11.8376 30.6588 11.8128C30.6962 11.788 30.7254 11.7527 30.7427 11.7113C30.76 11.67 30.7647 11.6244 30.7561 11.5803C30.7474 11.5363 30.7259 11.4958 30.6943 11.4641C30.6627 11.4323 30.6223 11.4106 30.5783 11.4017C30.5343 11.3929 30.4887 11.3973 30.4473 11.4144C30.4058 11.4316 30.3703 11.4606 30.3454 11.4979C30.3205 11.5352 30.3071 11.579 30.3071 11.6239C30.307 11.6536 30.3127 11.683 30.324 11.7105C30.3353 11.738 30.3518 11.763 30.3728 11.784C30.3937 11.8051 30.4186 11.8218 30.4461 11.8332C30.4735 11.8446 30.5029 11.8504 30.5326 11.8504ZM30.4923 11.7546H30.4313V11.4932H30.5402C30.5632 11.4908 30.5863 11.4954 30.6067 11.5062C30.6169 11.5138 30.6252 11.5236 30.6309 11.535C30.6365 11.5464 30.6395 11.5589 30.6394 11.5716C30.6399 11.5861 30.6359 11.6004 30.6278 11.6125C30.6198 11.6246 30.6083 11.6339 30.5947 11.6391L30.6426 11.7546H30.5751L30.5359 11.6457H30.4923V11.6064H30.5261C30.5382 11.6097 30.551 11.6097 30.5631 11.6064C30.5678 11.6031 30.5717 11.5987 30.5743 11.5936C30.577 11.5885 30.5784 11.5828 30.5784 11.577C30.5781 11.5716 30.5766 11.5663 30.574 11.5616C30.5713 11.5569 30.5676 11.5528 30.5631 11.5498C30.5506 11.5471 30.5376 11.5471 30.525 11.5498H30.4923V11.7677V11.7546Z" fill="white"/>
<path fill-rule="evenodd" clip-rule="evenodd" d="M10.8093 11.9218H9.67097L10.3474 8.32717L8.78864 11.9218H7.75054L7.561 8.34896L6.88237 11.9208H5.84863L6.73205 7.24768H8.50869L8.60237 10.1408L9.85506 7.24768H11.7069L10.8093 11.9218Z" fill="white"/>
<path fill-rule="evenodd" clip-rule="evenodd" d="M23.5402 11.8752C23.2747 11.9546 22.9993 11.996 22.7221 11.9983C22.1394 11.9983 21.8213 11.7042 21.8213 11.1639C21.8224 11.0495 21.8337 10.9354 21.8551 10.8229L21.9237 10.4515L21.9771 10.1508L22.5054 7.24896H23.6371L23.4737 8.1204H24.0543L23.8986 9.04412H23.3147L23.0152 10.6367C23.0035 10.6882 22.997 10.7407 22.9955 10.7935C22.9955 10.9896 23.1132 11.0757 23.3844 11.0757C23.4877 11.0789 23.5908 11.0668 23.6905 11.0397L23.5402 11.8752Z" fill="white"/>
<path fill-rule="evenodd" clip-rule="evenodd" d="M26.8633 8.15186C26.8221 8.13335 26.779 8.11947 26.7348 8.11047L26.6367 8.08868C26.5986 8.08185 26.56 8.07856 26.5213 8.07888C26.1476 8.07888 25.8786 8.24663 25.53 8.69651L25.6302 8.12027H24.5987L23.9048 11.9208H25.0442C25.4527 9.59627 25.627 9.18996 26.1738 9.18996C26.2141 9.18996 26.262 9.18996 26.3176 9.19867L26.4505 9.22699L26.8633 8.15186Z" fill="white"/>
<path fill-rule="evenodd" clip-rule="evenodd" d="M19.0235 9.32165C19.0235 9.80203 19.2915 10.1321 19.9004 10.3804C20.3677 10.5722 20.4451 10.6277 20.4451 10.7998C20.4451 11.0373 20.2392 11.144 19.7839 11.144C19.4343 11.1431 19.0866 11.0925 18.7512 10.9937L18.5933 11.8651L18.6445 11.8739L18.8558 11.9131C18.9233 11.9251 19.0235 11.936 19.1564 11.9468C19.4298 11.9675 19.6423 11.9784 19.7915 11.9784C21.0071 11.9784 21.5692 11.5765 21.5692 10.7094C21.5773 10.4663 21.5006 10.2279 21.3524 10.035C21.2042 9.84205 20.9936 9.70658 20.7566 9.6517C20.274 9.45999 20.2185 9.4175 20.2185 9.23995C20.2185 9.03516 20.4091 8.9295 20.7817 8.9295C21.0584 8.93322 21.3348 8.95213 21.6095 8.98614L21.774 8.10708C21.4377 8.06273 21.0991 8.03764 20.7599 8.03192C19.4712 8.03192 19.0246 8.61578 19.029 9.31729" fill="white"/>
<path fill-rule="evenodd" clip-rule="evenodd" d="M14.5133 11.9214H13.5667L13.5885 11.5281C13.4342 11.6872 13.247 11.8108 13.0401 11.8902C12.8331 11.9695 12.6114 12.0029 12.3903 11.9878C12.2518 11.9952 12.1134 11.9734 11.984 11.9238C11.8545 11.8743 11.7369 11.7981 11.6388 11.7003C11.5406 11.6024 11.4641 11.4851 11.4142 11.3558C11.3642 11.2265 11.342 11.0881 11.3489 10.9497C11.3489 10.0238 12.0852 9.48462 13.3499 9.48462C13.505 9.48588 13.6599 9.4957 13.814 9.51403C13.841 9.43427 13.8561 9.35094 13.8586 9.26676C13.8586 9.01513 13.6593 8.92145 13.1277 8.92145C12.8094 8.92129 12.4921 8.95784 12.1822 9.03038L12.0242 9.07069L11.9219 9.09465L12.0809 8.24064C12.524 8.11249 12.9824 8.04471 13.4436 8.03912C14.424 8.03912 14.9403 8.42473 14.9403 9.15347C14.9336 9.40712 14.9026 9.65954 14.8477 9.90726L14.6091 11.2547L14.5699 11.4965L14.5405 11.6904L14.5209 11.8222L14.5133 11.9214ZM13.6822 10.2286C13.5976 10.2181 13.5125 10.213 13.4273 10.2134C12.7824 10.2134 12.4556 10.4073 12.4556 10.7918C12.4531 10.8451 12.4622 10.8983 12.4822 10.9478C12.5021 10.9973 12.5325 11.042 12.5713 11.0787C12.6101 11.1154 12.6563 11.1433 12.7068 11.1605C12.7573 11.1777 12.811 11.1839 12.8641 11.1785C12.9809 11.1718 13.0951 11.1417 13.2 11.0899C13.3049 11.0381 13.3983 10.9658 13.4747 10.8771C13.551 10.7885 13.6087 10.6854 13.6444 10.574C13.68 10.4626 13.6929 10.3451 13.6822 10.2286Z" fill="white"/>
<path fill-rule="evenodd" clip-rule="evenodd" d="M18.2509 11.8344C17.8707 11.9378 17.4782 11.9895 17.0842 11.9879C15.8108 11.9879 15.1475 11.4041 15.1475 10.2854C15.1223 10.0046 15.1545 9.72163 15.2421 9.45367C15.3296 9.18572 15.4708 8.93836 15.6569 8.72665C15.8431 8.51494 16.0703 8.34328 16.3249 8.22212C16.5794 8.10095 16.8559 8.03281 17.1376 8.02182C17.3319 7.99778 17.5292 8.01574 17.716 8.07449C17.9028 8.13323 18.0748 8.23139 18.2204 8.36233C18.366 8.49327 18.4818 8.65394 18.56 8.83348C18.6381 9.01303 18.6769 9.20726 18.6735 9.40305C18.668 9.72049 18.6208 10.0358 18.533 10.3409H16.2694C16.2625 10.3805 16.2589 10.4206 16.2585 10.4608C16.2585 10.8965 16.5962 11.1263 17.2574 11.1263C17.664 11.1267 18.0664 11.0448 18.4404 10.8856L18.2509 11.8344ZM17.6441 9.57298C17.6507 9.49346 17.6539 9.42919 17.6539 9.37908C17.6573 9.30902 17.6451 9.23907 17.6182 9.17431C17.5912 9.10955 17.5501 9.0516 17.498 9.00468C17.4459 8.95775 17.3839 8.92301 17.3167 8.90299C17.2495 8.88296 17.1786 8.87815 17.1093 8.8889C16.7476 8.8889 16.4884 9.13181 16.3827 9.5708L17.6441 9.57298Z" fill="white"/>
<path fill-rule="evenodd" clip-rule="evenodd" d="M30.4052 10.2016C30.3826 10.4678 30.3071 10.7269 30.1831 10.9635C30.059 11.2002 29.889 11.4097 29.6829 11.5797C29.4769 11.7498 29.2389 11.8769 28.983 11.9538C28.7271 12.0307 28.4585 12.0556 28.1928 12.0273C27.9533 12.0558 27.7105 12.0307 27.4819 11.9536C27.2534 11.8766 27.0449 11.7495 26.8716 11.5818C26.6983 11.414 26.5646 11.2097 26.4801 10.9838C26.3957 10.7579 26.3627 10.516 26.3835 10.2757C26.363 9.97491 26.4068 9.67323 26.512 9.39072C26.6172 9.1082 26.7813 8.85133 26.9935 8.63719C27.2057 8.42305 27.4611 8.25655 27.7426 8.14877C28.0241 8.04099 28.3254 7.99441 28.6263 8.01212C28.8616 7.98909 29.0991 8.0169 29.3227 8.09367C29.5462 8.17044 29.7507 8.29438 29.9222 8.45708C30.0937 8.61979 30.2282 8.81746 30.3166 9.03669C30.405 9.25593 30.4452 9.49161 30.4346 9.72776C30.4399 9.8852 30.43 10.0428 30.4052 10.1983M29.232 9.71251C29.232 9.31492 29.0719 8.93911 28.6046 8.93911C28.024 8.93911 27.6634 9.6319 27.6634 10.2463C27.6634 10.7626 27.9107 11.1079 28.317 11.1014C28.5399 11.0527 28.7429 10.9379 28.8993 10.7719C29.0558 10.6059 29.1585 10.3965 29.1939 10.1711C29.2192 10.021 29.2316 9.86906 29.2309 9.71687" fill="white"/>
</g>
<defs>
<clipPath id="clip0_7_671">
<rect width="35.9225" height="18.4744" fill="white" transform="translate(0.354492 0.407593)"/>
</clipPath>
</defs>
</svg>
