<svg width="37" height="19" viewBox="0 0 37 19" fill="none" xmlns="http://www.w3.org/2000/svg">
<g clip-path="url(#clip0_7_695)">
<path d="M11.6128 18.7805V17.5565C11.6195 17.4614 11.6073 17.3659 11.577 17.2756C11.5467 17.1852 11.4989 17.1017 11.4363 17.0298C11.3736 16.9579 11.2975 16.8991 11.2121 16.8567C11.1267 16.8144 11.0339 16.7892 10.9388 16.7828C10.9062 16.7806 10.8736 16.7806 10.8411 16.7828C10.7065 16.7745 10.5722 16.8022 10.452 16.8632C10.3318 16.9242 10.2301 17.0161 10.1573 17.1296C10.091 17.0192 9.99627 16.9288 9.88299 16.8678C9.7697 16.8068 9.64207 16.7774 9.5135 16.7828C9.40093 16.7773 9.2889 16.8015 9.18861 16.8529C9.08832 16.9044 9.0033 16.9812 8.94203 17.0758V16.8345H8.51807V18.7883H8.94594V17.7137C8.92953 17.5937 8.96148 17.472 9.03475 17.3754C9.10802 17.2789 9.21662 17.2154 9.33669 17.1989C9.3656 17.196 9.39472 17.196 9.42363 17.1989C9.70497 17.1989 9.8476 17.3826 9.8476 17.7128V18.7971H10.2755V17.7079C10.2597 17.5871 10.2925 17.4651 10.3667 17.3685C10.4409 17.272 10.5504 17.2089 10.6711 17.1931C10.6984 17.1901 10.7259 17.1901 10.7532 17.1931C11.0462 17.1931 11.181 17.3767 11.181 17.7069V18.7912L11.6128 18.7805ZM17.9479 16.8267H17.2504V16.2357H16.8225V16.8267H16.4317V17.2175H16.8274V18.1143C16.8274 18.5675 17.0032 18.8362 17.5044 18.8362C17.6918 18.8369 17.8756 18.7847 18.0348 18.6857L17.9127 18.3223C17.799 18.3903 17.6699 18.4283 17.5376 18.4327C17.3334 18.4327 17.2562 18.3018 17.2562 18.1064V17.2175H17.9488L17.9479 16.8267ZM21.5623 16.7779C21.4589 16.7749 21.3566 16.7998 21.2662 16.85C21.1758 16.9002 21.1006 16.9738 21.0485 17.0631V16.8267H20.6284V18.7805H21.0524V17.6874C21.0524 17.365 21.1911 17.1852 21.4597 17.1852C21.5507 17.1842 21.641 17.2011 21.7254 17.2351L21.8554 16.8267C21.7585 16.7921 21.6564 16.7743 21.5535 16.774L21.5623 16.7779ZM16.0918 16.9821C15.8518 16.8392 15.5758 16.7683 15.2966 16.7779C14.8033 16.7779 14.4809 17.0143 14.4809 17.4021C14.4809 17.7206 14.7173 17.9159 15.154 17.9765L15.3582 18.0058C15.5897 18.0381 15.7001 18.1035 15.7001 18.209C15.7001 18.3604 15.5457 18.4464 15.2556 18.4464C15.0227 18.4525 14.7944 18.3806 14.6069 18.2422L14.4038 18.5724C14.6507 18.745 14.9466 18.8337 15.2478 18.8254C15.8105 18.8254 16.1367 18.5597 16.1367 18.1895C16.1367 17.8192 15.8798 17.6668 15.4529 17.6033L15.2487 17.574C15.0651 17.5496 14.9186 17.5135 14.9186 17.3787C14.9186 17.2439 15.0573 17.1501 15.2898 17.1501C15.5046 17.1529 15.7152 17.2108 15.9013 17.3181L16.0918 16.9821ZM27.4548 16.7818C27.3515 16.779 27.2493 16.804 27.1589 16.8541C27.0685 16.9043 26.9933 16.9778 26.941 17.067V16.8306H26.5219V18.7844H26.9459V17.6874C26.9459 17.365 27.0846 17.1852 27.3532 17.1852C27.4439 17.1841 27.5339 17.2011 27.618 17.2351L27.7489 16.8267C27.652 16.7922 27.5499 16.7743 27.447 16.774L27.4548 16.7818ZM21.9912 17.8017C21.9863 17.9309 22.007 18.0597 22.052 18.1809C22.097 18.3022 22.1655 18.4133 22.2535 18.508C22.3415 18.6027 22.4473 18.6792 22.5649 18.733C22.6825 18.7868 22.8095 18.8168 22.9387 18.8215C22.97 18.8215 23.0003 18.8215 23.0306 18.8215C23.2853 18.8352 23.5358 18.7521 23.732 18.589L23.5288 18.2471C23.3818 18.3584 23.2031 18.4197 23.0188 18.422C22.8629 18.4082 22.7179 18.3365 22.6122 18.221C22.5065 18.1056 22.4479 17.9547 22.4479 17.7982C22.4479 17.6417 22.5065 17.4909 22.6122 17.3754C22.7179 17.26 22.8629 17.1883 23.0188 17.1745C23.2031 17.1768 23.3818 17.2381 23.5288 17.3494L23.732 17.0075C23.5353 16.8452 23.2852 16.7622 23.0306 16.775C22.9015 16.7674 22.7721 16.7855 22.65 16.828C22.5279 16.8706 22.4154 16.9368 22.3189 17.0229C22.2224 17.1091 22.1439 17.2134 22.0878 17.3299C22.0318 17.4464 21.9992 17.5729 21.9921 17.702C21.9921 17.7333 21.9921 17.7636 21.9921 17.7938L21.9912 17.8017ZM25.9631 17.8017V16.8306H25.5392V17.067C25.4669 16.9744 25.3737 16.9003 25.2673 16.8507C25.1608 16.8011 25.0441 16.7775 24.9267 16.7818C24.6618 16.79 24.4105 16.901 24.226 17.0913C24.0415 17.2815 23.9384 17.5361 23.9384 17.8012C23.9384 18.0662 24.0415 18.3208 24.226 18.5111C24.4105 18.7013 24.6618 18.8123 24.9267 18.8205C25.0441 18.8251 25.1609 18.8016 25.2674 18.752C25.3739 18.7023 25.4671 18.6281 25.5392 18.5353V18.7717H25.9631V17.8017ZM24.3845 17.8017C24.3905 17.6483 24.4564 17.5034 24.5681 17.3982C24.6797 17.2929 24.8282 17.2356 24.9817 17.2386C25.1351 17.2416 25.2812 17.3047 25.3887 17.4142C25.4961 17.5238 25.5563 17.6711 25.5563 17.8246C25.5563 17.9781 25.4961 18.1254 25.3887 18.235C25.2812 18.3446 25.1351 18.4076 24.9817 18.4106C24.8282 18.4136 24.6797 18.3563 24.5681 18.2511C24.4564 18.1458 24.3905 18.0009 24.3845 17.8476C24.3845 17.8319 24.3845 17.8173 24.3845 17.8017ZM19.2666 16.7818C19.1304 16.78 18.9951 16.8056 18.8689 16.8569C18.7427 16.9083 18.628 16.9845 18.5317 17.0809C18.4354 17.1773 18.3594 17.2921 18.3082 17.4184C18.257 17.5447 18.2316 17.68 18.2336 17.8162C18.2356 17.9525 18.2648 18.087 18.3196 18.2118C18.3744 18.3365 18.4537 18.4491 18.5527 18.5427C18.6518 18.6363 18.7686 18.7091 18.8962 18.7568C19.0239 18.8046 19.1598 18.8262 19.296 18.8205C19.5891 18.8359 19.8775 18.7415 20.1048 18.5558L19.9016 18.2422C19.7403 18.3712 19.5406 18.4427 19.3341 18.4454C19.1934 18.4583 19.0533 18.4157 18.9438 18.3266C18.8342 18.2375 18.7639 18.109 18.7479 17.9687H20.1957V17.8056C20.2087 17.6764 20.1944 17.546 20.1538 17.4227C20.1132 17.2994 20.0471 17.186 19.9599 17.0899C19.8727 16.9938 19.7663 16.917 19.6475 16.8646C19.5288 16.8122 19.4004 16.7853 19.2706 16.7857L19.2666 16.7818ZM19.2666 17.1608C19.3945 17.1592 19.518 17.2078 19.6104 17.2963C19.7028 17.3847 19.7569 17.5058 19.7609 17.6336H18.7411C18.7484 17.5027 18.8067 17.3798 18.9034 17.2913C19.0002 17.2027 19.1277 17.1556 19.2588 17.1598L19.2666 17.1608ZM29.8921 17.8056V16.0472H29.4838V17.0661C29.4118 16.9734 29.3188 16.8992 29.2125 16.8496C29.1061 16.8 28.9895 16.7764 28.8723 16.7808C28.7358 16.7766 28.5998 16.7998 28.4724 16.8492C28.345 16.8985 28.2289 16.9729 28.1308 17.068C28.0327 17.163 27.9548 17.2768 27.9015 17.4026C27.8483 17.5284 27.8209 17.6636 27.8209 17.8002C27.8209 17.9368 27.8483 18.072 27.9015 18.1977C27.9548 18.3235 28.0327 18.4373 28.1308 18.5324C28.2289 18.6275 28.345 18.7019 28.4724 18.7512C28.5998 18.8005 28.7358 18.8238 28.8723 18.8196C28.9896 18.8242 29.1063 18.8007 29.2126 18.7511C29.319 18.7015 29.412 18.6271 29.4838 18.5343V18.7717H29.897L29.8921 17.8056ZM30.5994 18.4972C30.6258 18.4963 30.6521 18.501 30.6766 18.5109C30.7001 18.5205 30.7216 18.5345 30.7401 18.5519C30.758 18.5697 30.7725 18.5905 30.7831 18.6134C30.793 18.6373 30.7981 18.6628 30.7981 18.6887C30.7981 18.7145 30.793 18.74 30.7831 18.7639C30.7723 18.7866 30.7577 18.8074 30.7401 18.8254C30.7215 18.8426 30.7 18.8561 30.6766 18.8655C30.6522 18.8762 30.626 18.8818 30.5994 18.8821C30.5608 18.8817 30.523 18.8704 30.4905 18.8494C30.458 18.8285 30.4321 18.7989 30.4157 18.7639C30.4058 18.74 30.4007 18.7145 30.4007 18.6887C30.4007 18.6628 30.4058 18.6373 30.4157 18.6134C30.426 18.5903 30.4406 18.5694 30.4587 18.5519C30.4772 18.5345 30.4987 18.5205 30.5222 18.5109C30.5485 18.5 30.5769 18.4954 30.6053 18.4972H30.5994ZM30.5994 18.841C30.6195 18.8411 30.6395 18.8371 30.658 18.8293C30.6757 18.8215 30.6916 18.8102 30.7049 18.7961C30.7303 18.7684 30.7444 18.7321 30.7444 18.6945C30.7444 18.6569 30.7303 18.6207 30.7049 18.5929C30.6916 18.5789 30.6757 18.5676 30.658 18.5597C30.6395 18.5519 30.6195 18.5479 30.5994 18.548C30.579 18.5479 30.5587 18.5519 30.5398 18.5597C30.5216 18.5677 30.505 18.5789 30.491 18.5929C30.4656 18.6207 30.4515 18.6569 30.4515 18.6945C30.4515 18.7321 30.4656 18.7684 30.491 18.7961C30.505 18.8101 30.5216 18.8214 30.5398 18.8293C30.5605 18.8381 30.5828 18.8421 30.6053 18.841H30.5994ZM30.6111 18.5988C30.6304 18.5978 30.6495 18.6037 30.6648 18.6154C30.6711 18.6203 30.676 18.6268 30.6791 18.6341C30.6822 18.6415 30.6833 18.6495 30.6824 18.6574C30.6829 18.6642 30.682 18.671 30.6796 18.6774C30.6772 18.6838 30.6735 18.6897 30.6688 18.6945C30.6569 18.7054 30.6418 18.7119 30.6258 18.7131L30.6844 18.7805H30.6375L30.5808 18.7131H30.5623V18.7805H30.5242V18.6007L30.6111 18.5988ZM30.5662 18.633V18.6818H30.6111C30.619 18.6847 30.6277 18.6847 30.6355 18.6818C30.637 18.6791 30.6378 18.6761 30.6378 18.673C30.6378 18.67 30.637 18.6669 30.6355 18.6642C30.637 18.6614 30.6378 18.6582 30.6378 18.655C30.6378 18.6517 30.637 18.6485 30.6355 18.6457C30.6277 18.6428 30.619 18.6428 30.6111 18.6457L30.5662 18.633ZM28.3194 17.8056C28.3254 17.6545 28.3904 17.5119 28.5004 17.4083C28.6104 17.3047 28.7566 17.2483 28.9077 17.2513C29.0588 17.2543 29.2027 17.3164 29.3085 17.4244C29.4143 17.5323 29.4736 17.6774 29.4736 17.8285C29.4736 17.9796 29.4143 18.1247 29.3085 18.2327C29.2027 18.3406 29.0588 18.4027 28.9077 18.4057C28.7566 18.4087 28.6104 18.3524 28.5004 18.2487C28.3904 18.1451 28.3254 18.0025 28.3194 17.8515C28.3194 17.8368 28.3194 17.8212 28.3194 17.8056ZM13.9993 17.8056V16.8287H13.5832V17.0651C13.5112 16.9724 13.4182 16.8982 13.3118 16.8486C13.2055 16.799 13.0889 16.7755 12.9716 16.7798C12.7068 16.788 12.4555 16.899 12.271 17.0893C12.0865 17.2796 11.9833 17.5342 11.9833 17.7992C11.9833 18.0642 12.0865 18.3188 12.271 18.5091C12.4555 18.6994 12.7068 18.8104 12.9716 18.8186C13.0889 18.8232 13.2056 18.7997 13.312 18.7501C13.4184 18.7005 13.5113 18.6262 13.5832 18.5333V18.7717H14.0071L13.9993 17.8056ZM12.4217 17.8056C12.4283 17.6626 12.4906 17.5278 12.5953 17.4302C12.7 17.3326 12.8387 17.2798 12.9818 17.2831C13.1249 17.2864 13.261 17.3456 13.3611 17.448C13.4611 17.5503 13.5171 17.6878 13.5171 17.831C13.5171 17.9741 13.4611 18.1116 13.3611 18.214C13.261 18.3163 13.1249 18.3755 12.9818 18.3788C12.8387 18.3822 12.7 18.3293 12.5953 18.2317C12.4906 18.1341 12.4283 17.9993 12.4217 17.8564C12.4207 17.8394 12.4207 17.8225 12.4217 17.8056Z" fill="#1F191A"/>
<path d="M22.3741 1.97723H15.9512V13.519H22.3741V1.97723Z" fill="#FF5F00"/>
<path d="M16.3631 7.74981C16.3618 6.63798 16.6136 5.54044 17.0993 4.54034C17.5851 3.54024 18.2921 2.6638 19.1667 1.97744C18.0839 1.12646 16.7834 0.597296 15.414 0.450429C14.0446 0.303562 12.6616 0.544915 11.4229 1.14691C10.1841 1.7489 9.13979 2.68724 8.40913 3.85468C7.67848 5.02213 7.29102 6.37159 7.29102 7.74883C7.29102 9.12607 7.67848 10.4755 8.40913 11.643C9.13979 12.8104 10.1841 13.7488 11.4229 14.3508C12.6616 14.9527 14.0446 15.1941 15.414 15.0472C16.7834 14.9004 18.0839 14.3712 19.1667 13.5202C18.2923 12.8341 17.5855 11.9579 17.0997 10.9582C16.614 9.95845 16.3621 8.8613 16.3631 7.74981Z" fill="#FF0015"/>
<path d="M31.0419 7.74974C31.0419 9.1271 30.6544 10.4767 29.9236 11.6442C29.1928 12.8117 28.1483 13.75 26.9094 14.3519C25.6705 14.9538 24.2873 15.195 22.9178 15.0479C21.5483 14.9009 20.2478 14.3714 19.165 13.5202C20.039 12.8333 20.7456 11.957 21.2315 10.9572C21.7174 9.95741 21.9698 8.86034 21.9698 7.74876C21.9698 6.63718 21.7174 5.54011 21.2315 4.54034C20.7456 3.54057 20.039 2.66421 19.165 1.97737C20.2478 1.1261 21.5483 0.59666 22.9178 0.449572C24.2873 0.302483 25.6705 0.54368 26.9094 1.14559C28.1483 1.7475 29.1928 2.68584 29.9236 3.85335C30.6544 5.02086 31.0419 6.37043 31.0419 7.74778V7.74974Z" fill="#FF9200"/>
<path d="M30.3414 12.2959V12.0595H30.439V12.0107H30.1968V12.0595H30.3003V12.2959H30.3414ZM30.8122 12.2959V12.0107H30.7389L30.653 12.2148L30.568 12.0107H30.5025V12.2959H30.5553V12.082L30.6344 12.2676H30.6901L30.7692 12.082V12.2979L30.8122 12.2959Z" fill="#FF9200"/>
</g>
<defs>
<clipPath id="clip0_7_695">
<rect width="35.9225" height="18.4744" fill="white" transform="translate(0.804199 0.407593)"/>
</clipPath>
</defs>
</svg>
