<svg width="63" height="13" viewBox="0 0 63 13" fill="none" xmlns="http://www.w3.org/2000/svg">
<path d="M4.76692 8.48161C5.55989 8.48141 6.335 8.24529 6.99424 7.80311C7.65347 7.36093 8.16723 6.73255 8.47055 5.99742C8.77387 5.26229 8.85313 4.45343 8.6983 3.6731C8.54348 2.89278 8.16153 2.17604 7.60074 1.61351C7.03995 1.05098 6.32551 0.667923 5.54776 0.512776C4.77001 0.357629 3.96387 0.437357 3.23128 0.741881C2.49869 1.0464 1.87254 1.56205 1.43201 2.22361C0.991479 2.88517 0.756348 3.66294 0.756348 4.45858C0.756348 4.98698 0.860091 5.5102 1.06165 5.99836C1.26322 6.48652 1.55865 6.93006 1.93108 7.30365C2.30351 7.67724 2.74564 7.97355 3.23222 8.17566C3.7188 8.37778 4.24029 8.48174 4.76692 8.48161Z" fill="#0082CA"/>
<path d="M4.12901 4.75492H4.8185C4.98181 4.74027 5.14618 4.76677 5.29669 4.83201C5.36431 4.87171 5.42076 4.92801 5.46073 4.99562C5.50069 5.06322 5.52287 5.13992 5.52518 5.21849C5.526 5.29981 5.50733 5.38013 5.47073 5.45269C5.43414 5.52525 5.38069 5.58791 5.31489 5.6354C5.14943 5.71439 4.96512 5.74498 4.78311 5.72365H4.12901V4.75492ZM4.12901 3.16031H4.69617C4.87758 3.14093 5.06103 3.161 5.23401 3.21915C5.29653 3.25678 5.34811 3.31022 5.38359 3.37413C5.41908 3.43803 5.43722 3.51016 5.43621 3.58331C5.4373 3.65271 5.42267 3.72146 5.39342 3.78437C5.36418 3.84728 5.32108 3.9027 5.26737 3.94646C5.11579 4.03015 4.94145 4.06285 4.76997 4.03978H4.13305L4.12901 3.16031ZM3.19385 2.45025V6.47328H4.98834C5.34565 6.51192 5.70597 6.43592 6.01752 6.2562C6.16236 6.15983 6.28246 6.03049 6.36802 5.87871C6.45358 5.72694 6.50219 5.55702 6.50987 5.38282C6.51479 5.14274 6.43294 4.909 6.27943 4.72477C6.12593 4.54055 5.91116 4.41829 5.6748 4.38061V4.36844C5.87715 4.33204 6.06031 4.22544 6.19226 4.06727C6.32421 3.9091 6.39655 3.70944 6.39664 3.50317C6.40093 3.32532 6.35737 3.1496 6.27056 2.99448C6.18374 2.83936 6.05687 2.71058 5.90328 2.62168C5.62065 2.47529 5.30186 2.414 4.98531 2.44517L3.19385 2.45025Z" fill="white"/>
<path d="M60.1725 12.5857H62.338V2.4419H60.1725V12.5857ZM56.9313 12.5857H59.0978V2.4419H56.9313V12.5857ZM51.1556 7.91955C51.2294 7.0624 51.5974 6.35234 52.5548 6.35234C53.5122 6.35234 53.7679 7.10602 53.8074 7.91955H51.1556ZM55.9739 9.20579C56.0409 8.168 55.7722 7.13623 55.2076 6.26409C54.8856 5.84267 54.4704 5.50214 53.9948 5.2694C53.5191 5.03667 52.996 4.9181 52.4668 4.92308C50.1415 4.92308 48.8273 6.71244 48.8273 8.92988C48.7929 9.43034 48.8643 9.93245 49.0367 10.4033C49.2091 10.8742 49.4787 11.3032 49.8278 11.6623C50.1769 12.0214 50.5977 12.3025 51.0626 12.4871C51.5275 12.6718 52.026 12.7558 52.5254 12.7338C53.3016 12.7559 54.0619 12.5116 54.6809 12.0412C55.2998 11.5709 55.7403 10.9027 55.9294 10.1471L53.9267 9.99497C53.902 10.3264 53.7498 10.6352 53.5022 10.8559C53.2547 11.0767 52.9312 11.1921 52.6003 11.1777C52.3962 11.1789 52.1942 11.1366 52.0076 11.0538C51.821 10.971 51.654 10.8494 51.5176 10.6971C51.3813 10.5448 51.2786 10.3653 51.2163 10.1703C51.1541 9.97534 51.1337 9.76934 51.1566 9.56589L51.1707 9.19666L55.9739 9.20579ZM45.8509 9.45735C45.8761 9.83701 45.8102 10.2172 45.6588 10.5661C45.5695 10.7421 45.4353 10.8912 45.2697 10.9982C45.1042 11.1051 44.9133 11.166 44.7166 11.1747C43.6399 11.1747 43.5226 9.80021 43.5226 8.98769C43.5226 8.0849 43.5671 6.45885 44.8046 6.45885C45.7923 6.45885 45.8509 7.70045 45.8509 8.42573V9.45735ZM48.0165 12.5908V2.44697H45.8509V5.87456C45.6565 5.55851 45.3789 5.30244 45.0487 5.13456C44.7186 4.96667 44.3486 4.89349 43.9796 4.92308C41.7989 4.92308 41.2388 7.12631 41.2388 8.91466C41.2388 10.6584 41.8282 12.7287 43.9351 12.7287C44.3595 12.7314 44.7751 12.6075 45.1292 12.3727C45.4833 12.1379 45.7598 11.8028 45.9237 11.41H45.9541V12.5776L48.0165 12.5908ZM38.218 9.28491C38.2767 9.78721 38.1736 10.2952 37.9238 10.7345C37.8085 10.9214 37.6481 11.0763 37.4575 11.1848C37.2669 11.2933 37.0521 11.3519 36.833 11.3553C36.7027 11.3626 36.5724 11.3417 36.4509 11.2941C36.3293 11.2465 36.2195 11.1732 36.1286 11.0792C36.0378 10.9852 35.9682 10.8727 35.9246 10.7493C35.8809 10.626 35.8642 10.4946 35.8756 10.3642C35.8756 9.27071 37.392 9.07899 38.218 8.98972V9.28491ZM40.5756 12.5816C40.4676 12.2175 40.4178 11.8385 40.428 11.4587V7.9581C40.428 7.05733 40.5018 6.23365 39.7355 5.60778C39.0372 5.13287 38.2057 4.89471 37.3627 4.92815C35.7866 4.92815 34.0184 5.4607 33.797 7.27948L35.8462 7.47018C35.8462 6.73171 36.4528 6.37668 37.1423 6.37668C37.3067 6.36733 37.4711 6.39428 37.6239 6.45562C37.7768 6.51696 37.9143 6.61121 38.0269 6.73171C38.1992 7.03099 38.2665 7.37958 38.218 7.72175V7.89927C37.2155 7.93675 36.2212 8.09581 35.2568 8.37298C34.7748 8.51415 34.351 8.80752 34.0483 9.20953C33.7456 9.61155 33.5802 10.1008 33.5766 10.6046C33.57 10.9064 33.6283 11.206 33.7476 11.4831C33.8669 11.7603 34.0443 12.0083 34.2678 12.2104C34.4913 12.4125 34.7555 12.5638 35.0426 12.6541C35.3296 12.7445 35.6327 12.7716 35.9312 12.7338C36.4113 12.7545 36.8878 12.6425 37.3087 12.4099C37.7297 12.1774 38.0788 11.8332 38.3181 11.4151C38.301 11.807 38.335 12.1995 38.4192 12.5827L40.5756 12.5816ZM26.2985 12.5816H27.4773C27.5686 12.1709 27.7334 11.7801 27.9636 11.4283C28.1441 11.8388 28.4456 12.184 28.8275 12.4174C29.2095 12.6508 29.6535 12.7612 30.0998 12.7338C32.3543 12.7338 33.1328 10.7973 33.1328 8.83148C33.1328 7.05733 32.4847 4.92815 30.3485 4.92815C29.9696 4.90548 29.5926 4.99774 29.2666 5.19295C28.9406 5.38815 28.6807 5.67725 28.5207 6.02266H28.462V2.44393H26.2985V12.5816ZM28.4934 8.35371C28.4934 7.55539 28.641 6.41726 29.6873 6.41726C30.8803 6.41726 30.8803 7.98447 30.8803 8.82742C30.8803 9.63893 30.8803 11.2072 29.658 11.2072C29.4744 11.2086 29.2937 11.1615 29.134 11.0707C28.9743 10.9799 28.8412 10.8486 28.7481 10.6898C28.5488 10.3028 28.4619 9.86725 28.4974 9.43301L28.4934 8.35371ZM22.8895 9.28491C22.9484 9.78734 22.8449 10.2955 22.5943 10.7345C22.4793 10.9215 22.3191 11.0764 22.1286 11.1849C21.9381 11.2934 21.7235 11.352 21.5044 11.3553C21.3741 11.3627 21.2437 11.342 21.122 11.2944C21.0004 11.2469 20.8904 11.1736 20.7994 11.0796C20.7085 10.9855 20.6388 10.873 20.5951 10.7496C20.5514 10.6261 20.5346 10.4947 20.546 10.3642C20.546 9.27071 22.0625 9.07899 22.8895 8.98972V9.28491ZM25.2471 12.5816C25.1391 12.2175 25.0893 11.8385 25.0995 11.4587V7.9581C25.0995 7.05733 25.1733 6.23365 24.407 5.60778C23.7086 5.13287 22.8771 4.89471 22.0342 4.92815C20.4581 4.92815 18.6899 5.4607 18.4684 7.27948L20.5167 7.47018C20.5167 6.73171 21.1233 6.37668 21.8138 6.37668C21.978 6.36727 22.1423 6.3942 22.295 6.45555C22.4477 6.5169 22.585 6.61118 22.6974 6.73171C22.8705 7.0307 22.9381 7.37946 22.8895 7.72175V7.89927C21.8867 7.93667 20.892 8.09573 19.9273 8.37298C19.4453 8.51415 19.0214 8.80752 18.7187 9.20953C18.4161 9.61155 18.2506 10.1008 18.247 10.6046C18.2404 10.9068 18.2988 11.2069 18.4183 11.4844C18.5378 11.7618 18.7156 12.0102 18.9395 12.2124C19.1634 12.4146 19.4282 12.566 19.7157 12.6561C20.0033 12.7463 20.3068 12.7731 20.6057 12.7348C21.0856 12.7548 21.5619 12.6425 21.9827 12.41C22.4035 12.1775 22.7528 11.8338 22.9926 11.4161C22.9745 11.8081 23.0085 12.2007 23.0937 12.5837L25.2471 12.5816ZM17.4372 4.66948C16.8236 2.91765 15.3789 2.29583 13.6117 2.29583C12.6945 2.25373 11.7935 2.54835 11.0771 3.12458C10.7284 3.41308 10.4492 3.77701 10.2604 4.18913C10.0717 4.60125 9.97832 5.05086 9.98731 5.50431C9.98731 7.72175 11.7555 8.2543 13.552 8.62353C14.1718 8.75743 15.3213 8.91973 15.3213 9.76167C15.3213 10.6036 14.4215 10.8572 13.7441 10.8572C13.2785 10.9208 12.8058 10.8096 12.4169 10.5449C12.028 10.2801 11.7504 9.88053 11.6372 9.42286L9.45654 9.92498C9.91351 11.9061 11.6372 12.7338 13.5379 12.7338C14.5791 12.7868 15.6089 12.496 16.4697 11.9061C16.8569 11.6052 17.1709 11.2199 17.3877 10.7793C17.6046 10.3387 17.7186 9.85439 17.7213 9.36302C17.7212 8.88376 17.5994 8.41242 17.3676 7.99343C17.1357 7.57443 16.8013 7.22156 16.3959 6.96806C15.5717 6.53301 14.6792 6.24308 13.7573 6.11091C13.183 6.00948 12.2994 5.82993 12.2994 5.09045C12.2994 4.30735 13.0647 4.14403 13.6986 4.14403C14.0834 4.10197 14.4704 4.19971 14.7895 4.41952C15.1085 4.63933 15.3384 4.96663 15.4375 5.34201L17.4372 4.66948Z" fill="#1E120D"/>
</svg>
