<svg width="60" height="19" viewBox="0 0 60 19" fill="none" xmlns="http://www.w3.org/2000/svg">
<g clip-path="url(#clip0_7_233)">
<path d="M59.3682 9.11972C59.3866 9.43861 59.3572 9.75846 59.2812 10.0687C59.0006 9.99227 58.7094 9.96288 58.4192 9.98169C58.1602 9.98169 57.9022 10.0687 57.6432 10.0687V14.3805H56.5223V9.38071C57.1336 9.16687 57.7747 9.05046 58.4222 9.03573C58.741 9.01756 59.0608 9.04653 59.3712 9.12172M51.8715 11.2776H54.4584C54.4689 11.105 54.4426 10.932 54.3813 10.7703C54.32 10.6085 54.2251 10.4616 54.1027 10.3393C53.9804 10.217 53.8335 10.1221 53.6718 10.0608C53.51 9.99945 53.3371 9.97318 53.1644 9.98369C52.3885 9.98369 51.9575 10.415 51.8715 11.2776ZM55.4933 12.2266H51.9515C52.0375 13.1756 52.5515 13.6065 53.5904 13.6065C54.2179 13.5854 54.8346 13.4374 55.4033 13.1716C55.3036 13.5082 55.2455 13.8558 55.2303 14.2065C54.7174 14.4436 54.1574 14.5616 53.5924 14.5515C53.2143 14.6018 52.8297 14.5658 52.4674 14.4462C52.1052 14.3266 51.7748 14.1265 51.5009 13.8609C51.2271 13.5954 51.017 13.2712 50.8863 12.9128C50.7556 12.5544 50.7079 12.1711 50.7465 11.7916C50.7465 10.2387 51.5225 9.03173 53.2464 9.03173C53.5599 9.00069 53.8764 9.03966 54.1731 9.14582C54.4697 9.25198 54.739 9.42268 54.9617 9.6456C55.1843 9.86852 55.3547 10.1381 55.4604 10.4348C55.5662 10.7316 55.6048 11.0482 55.5733 11.3616C55.5733 11.7066 55.4873 11.9616 55.4873 12.2246M48.7606 13.2596V10.0717C48.5016 10.0717 48.1606 9.98469 47.8986 9.98469C46.7777 9.98469 46.2597 10.6747 46.2597 11.8846C46.2597 12.9196 46.6907 13.6095 47.6397 13.6095C48.0357 13.5869 48.4204 13.4685 48.7606 13.2646M49.8816 7.3138V14.3855H48.8466L48.7606 13.7855C48.6131 14.0389 48.3976 14.246 48.1386 14.3833C47.8795 14.5206 47.5872 14.5827 47.2947 14.5625C46.0007 14.5625 45.1388 13.5275 45.1388 11.8886C45.0868 11.5093 45.1218 11.1232 45.241 10.7594C45.3602 10.3956 45.5605 10.0637 45.8269 9.78871C46.0932 9.51372 46.4185 9.30286 46.7783 9.17207C47.1381 9.04127 47.5229 8.99397 47.9036 9.03373C48.2486 9.03373 48.5036 9.11972 48.7656 9.11972V7.48079C49.1216 7.34014 49.5047 7.28136 49.8866 7.3088M44.1948 11.0166V14.3805H43.0688V11.1896C43.0688 10.4137 42.8108 9.98169 41.6889 9.98169C41.4309 9.98169 41.1719 10.0687 40.8269 10.0687V14.3805H39.704V9.38071C40.3789 9.18877 41.0732 9.07305 41.7739 9.03573C43.5848 9.03573 44.1878 9.8117 44.1878 11.0186M37.3751 13.2616V10.0717C37.1171 10.0717 36.8581 9.98469 36.5991 9.98469C35.3921 9.98469 34.8742 10.7617 34.8742 11.8846C34.8742 12.9196 35.3062 13.6095 36.2541 13.6095C36.6581 13.642 37.0592 13.5186 37.3751 13.2646M38.497 9.38371V14.3835H37.4641L37.3771 13.7835C37.2406 14.0271 37.0398 14.2283 36.7965 14.3654C36.5533 14.5024 36.2771 14.5699 35.9981 14.5605C34.6182 14.5605 33.7552 13.5255 33.7552 11.8866C33.7061 11.5006 33.746 11.1085 33.8717 10.7403C33.9974 10.3721 34.2058 10.0375 34.4807 9.76219C34.7556 9.48686 35.0899 9.27808 35.458 9.15182C35.826 9.02556 36.218 8.98516 36.6041 9.03373C37.2546 9.01424 37.9019 9.13178 38.504 9.37871M32.4673 13.6045C32.7904 13.5972 33.1103 13.5388 33.4152 13.4315C33.3292 13.6905 33.3292 14.0315 33.2432 14.3805C32.9378 14.4872 32.6177 14.5455 32.2943 14.5535C32.0609 14.5823 31.8239 14.5576 31.6015 14.4811C31.3791 14.4046 31.1771 14.2784 31.0108 14.1121C30.8445 13.9458 30.7183 13.7437 30.6418 13.5213C30.5653 13.2989 30.5405 13.062 30.5693 12.8286V7.48079C30.9061 7.38183 31.2536 7.32407 31.6043 7.3088V9.20872H33.4152C33.4152 9.55371 33.3292 9.89869 33.3292 10.1577H31.5993V12.6576C31.5993 13.3476 31.9443 13.6065 32.4623 13.6065M29.4434 11.0186V14.3825H28.3224V11.1896C28.3224 10.4137 28.0645 9.98169 26.9425 9.98169C26.6845 9.98169 26.3425 10.0687 25.9945 10.0687V14.3805H24.8736V9.38071C25.5511 9.20216 26.2437 9.08667 26.9425 9.03573C28.8424 9.03573 29.4434 9.8117 29.4434 11.0186ZM22.5427 13.2616V10.0717C22.3707 10.0717 22.1117 9.98469 21.7667 9.98469C21.5226 9.97619 21.2796 10.021 21.0546 10.116C20.8295 10.211 20.6279 10.3539 20.4637 10.5347C20.2995 10.7155 20.1767 10.93 20.1039 11.1631C20.031 11.3963 20.0098 11.6425 20.0418 11.8846C20.0418 12.9196 20.4728 13.6095 21.5077 13.6095C21.6946 13.6257 21.8829 13.6034 22.0609 13.5441C22.2389 13.4848 22.4028 13.3896 22.5427 13.2646M23.6636 9.38371V14.3835H22.6307V13.7835C22.4673 14.0219 22.2486 14.217 21.9933 14.3524C21.738 14.4877 21.4537 14.5591 21.1647 14.5605C19.8718 14.5605 18.9228 13.5255 18.9228 11.8866C18.875 11.5014 18.9157 11.1104 19.0418 10.7434C19.1679 10.3763 19.3761 10.0429 19.6505 9.76841C19.925 9.49397 20.2584 9.28577 20.6255 9.15967C20.9925 9.03356 21.3835 8.99289 21.7687 9.04073C22.4203 9.00454 23.0713 9.12274 23.6686 9.38571M13.579 14.2155C13.5869 13.864 13.6451 13.5155 13.752 13.1806C14.3564 13.4198 15.0021 13.5371 15.652 13.5255C16.6009 13.5255 17.1179 13.2666 17.1179 12.6626C17.1179 12.0586 16.6869 11.8006 15.738 11.3686L15.221 11.1966C14.7702 11.071 14.3735 10.8 14.0927 10.4256C13.8118 10.0513 13.6625 9.59467 13.668 9.12672C13.668 8.00577 14.445 7.2268 16.0829 7.2268C16.6965 7.21583 17.3079 7.30327 17.8939 7.48579C17.8934 7.83785 17.8353 8.18745 17.7219 8.52075C17.1905 8.35746 16.6387 8.27026 16.0829 8.26176C15.221 8.26176 14.79 8.60675 14.79 9.12472C14.79 9.6427 15.134 9.98669 15.9109 10.2457L16.4279 10.5047C17.7219 11.0216 18.2389 11.6256 18.2389 12.5746C18.2389 13.7815 17.3769 14.5585 15.652 14.5585C14.9448 14.6001 14.2374 14.4822 13.582 14.2135M8.49425 9.21372C8.4317 8.8259 8.31559 8.44865 8.14926 8.09277L6.41833 5.15189C6.31805 4.92749 6.23188 4.69705 6.16034 4.46191V4.63491C5.94828 4.98612 5.83621 5.38859 5.83621 5.79886C5.83621 6.20913 5.94828 6.6116 6.16034 6.96281L7.45329 9.29172C7.6648 9.64331 7.77655 10.0459 7.77655 10.4562C7.77655 10.8665 7.6648 11.269 7.45329 11.6206L7.36729 11.7936C7.36096 11.5145 7.27071 11.2437 7.1083 11.0166L5.90535 8.86074L5.12538 7.57179C4.96289 7.34511 4.87262 7.07465 4.86639 6.79582L4.7804 6.96781C4.56825 7.31918 4.45613 7.72182 4.45613 8.13226C4.45613 8.54271 4.56825 8.94535 4.7804 9.29672L6.16034 11.6256C6.33041 11.9903 6.41854 12.3877 6.41854 12.7901C6.41854 13.1924 6.33041 13.5899 6.16034 13.9545L6.07334 14.1265C6.00146 13.8915 5.91531 13.6611 5.81536 13.4365L4.09043 10.4997C3.85665 10.1091 3.73713 9.66082 3.74544 9.20572C1.93451 9.6367 0.726562 10.6717 0.726562 11.7936C0.726562 13.4315 3.14146 14.7255 6.16034 14.7255C9.09222 14.7255 11.5061 13.4315 11.5061 11.7936C11.5061 10.6717 10.2992 9.6367 8.48825 9.20572" fill="white"/>
</g>
<defs>
<clipPath id="clip0_7_233">
<rect width="58.5024" height="18.4744" fill="white" transform="translate(0.726562 0.356506)"/>
</clipPath>
</defs>
</svg>
