<svg width="57" height="19" viewBox="0 0 57 19" fill="none" xmlns="http://www.w3.org/2000/svg">
<g clip-path="url(#clip0_7_645)">
<path fill-rule="evenodd" clip-rule="evenodd" d="M14.8819 11.5831C15.1193 11.787 15.3871 11.9524 15.6757 12.0732C15.9286 12.1831 16.2008 12.2416 16.4765 12.2456C16.6741 12.2554 16.8679 12.1886 17.0175 12.0591C17.0848 11.9936 17.1374 11.9145 17.1717 11.8271C17.2061 11.7396 17.2214 11.6459 17.2166 11.5521C17.2139 11.3553 17.1556 11.1634 17.0486 10.9984C16.8658 10.7286 16.6494 10.4832 16.4045 10.2682C16.089 9.98258 15.8206 9.6489 15.6093 9.27947C15.4634 8.98609 15.3893 8.66221 15.3932 8.33457C15.3772 7.9924 15.4346 7.65077 15.5615 7.33261C15.6884 7.01445 15.8819 6.72713 16.1291 6.48995C16.6814 6.01256 17.3972 5.76756 18.1262 5.80634C18.4541 5.80473 18.7809 5.84315 19.0994 5.92074C19.4245 6.00364 19.7395 6.12205 20.0387 6.27385L19.7152 8.25123C19.4941 8.09326 19.2546 7.96282 19.0019 7.86282C18.7904 7.77763 18.5648 7.7326 18.3367 7.73005C18.1751 7.71995 18.0155 7.77029 17.8889 7.87129C17.8343 7.9226 17.7915 7.98518 17.7634 8.05469C17.7354 8.1242 17.7228 8.19897 17.7265 8.27383C17.7265 8.50453 17.9356 8.82703 18.3536 9.24134C18.4073 9.29219 18.4469 9.33173 18.4779 9.36281C18.8153 9.66648 19.0969 10.0269 19.3098 10.4278C19.4492 10.7523 19.5176 11.1029 19.5104 11.456C19.5303 11.8352 19.469 12.2144 19.3306 12.568C19.1923 12.9217 18.9801 13.2417 18.7082 13.5068C18.1006 14.0325 17.3126 14.3014 16.5104 14.2568C16.1292 14.2595 15.7493 14.212 15.3805 14.1156C15.063 14.0379 14.7614 13.9055 14.4893 13.7244L14.8819 11.5831ZM24.7095 12.0888H22.9807C22.9814 12.2627 22.9186 12.431 22.8042 12.5619C22.7449 12.6176 22.6748 12.6605 22.5983 12.688C22.5218 12.7154 22.4404 12.7268 22.3593 12.7215C22.2856 12.7276 22.2114 12.7182 22.1416 12.6938C22.0718 12.6695 22.0079 12.6308 21.9539 12.5803C21.8553 12.4572 21.8077 12.301 21.8211 12.1439C21.8211 12.0817 21.8211 12.0026 21.8338 11.8967C21.8465 11.7908 21.8607 11.6509 21.8819 11.473H24.8931C24.927 11.2357 24.9496 11.0224 24.9652 10.8317C24.9807 10.641 24.9878 10.4645 24.9878 10.3007C25.0013 10.0188 24.9534 9.7374 24.8473 9.47594C24.7412 9.21448 24.5795 8.97924 24.3734 8.78654C23.9113 8.3925 23.316 8.19033 22.7095 8.22157C22.3128 8.20757 21.9184 8.28738 21.5584 8.45452C21.1984 8.62165 20.8829 8.87139 20.6375 9.18343C20.0912 9.92336 19.8181 10.8298 19.8649 11.7484C19.8175 12.4237 20.0371 13.0907 20.4765 13.6057C20.7123 13.8299 20.9922 14.0024 21.2983 14.1123C21.6045 14.2223 21.9302 14.2671 22.2547 14.2441C22.8789 14.2764 23.4927 14.075 23.9765 13.6792C24.1977 13.476 24.3765 13.2309 24.5023 12.9582C24.6281 12.6854 24.6986 12.3904 24.7095 12.0902M22.0259 10.5168C22.0634 10.2524 22.16 9.99996 22.3084 9.77806C22.3645 9.70391 22.4378 9.64449 22.5219 9.60488C22.6061 9.56527 22.6986 9.54667 22.7915 9.55066C22.858 9.54547 22.9249 9.55549 22.9871 9.57996C23.0493 9.60443 23.105 9.64271 23.1502 9.6919C23.2382 9.81117 23.2808 9.9579 23.2703 10.1057C23.2703 10.1509 23.2703 10.199 23.2703 10.247C23.2703 10.295 23.2703 10.3882 23.2519 10.5097L22.0259 10.5168ZM25.0866 14.0789L25.9863 8.38965H27.9312L27.8041 9.18484C28.0113 8.91057 28.2717 8.68094 28.5697 8.50971C28.8551 8.3499 29.1716 8.25355 29.4976 8.22722L29.1812 10.2329H29.1375C28.7477 10.2018 28.3586 10.3011 28.0315 10.5153C27.7579 10.7888 27.5923 11.152 27.5654 11.5379L27.17 14.0803L25.0866 14.0789ZM29.8987 8.38965H31.9439L32.0612 11.8614L33.2773 8.38965H35.321L32.8097 14.0789H30.6163L29.8987 8.38965ZM34.7659 14.0789H36.8267L37.7278 8.38965H35.6657L34.7659 14.0789ZM38.1332 6.22724C38.1452 6.59806 38.0148 6.95941 37.7687 7.23712C37.654 7.367 37.5123 7.47021 37.3534 7.53951C37.1946 7.6088 37.0225 7.6425 36.8493 7.63824C36.7213 7.64297 36.5938 7.62021 36.4754 7.57148C36.357 7.52275 36.2504 7.44919 36.1628 7.35576C35.9851 7.15411 35.8929 6.89119 35.9058 6.62271C35.8929 6.24938 36.0238 5.88535 36.2716 5.60577C36.3854 5.47492 36.5267 5.37076 36.6854 5.3007C36.8441 5.23064 37.0162 5.1964 37.1897 5.20041C37.3179 5.1951 37.4458 5.2176 37.5645 5.26635C37.6832 5.31511 37.79 5.38898 37.8775 5.48289C38.0557 5.68867 38.1473 5.95542 38.1332 6.22724ZM40.7447 9.58456H40.8662C41.0146 9.5937 41.1632 9.56924 41.3009 9.513C41.4386 9.45675 41.5618 9.37017 41.6614 9.2597C41.865 8.99162 41.9652 8.65921 41.9439 8.32327C41.9517 8.22968 41.9399 8.1355 41.9093 8.04673C41.8786 7.95796 41.8298 7.87656 41.7659 7.80773C41.6103 7.68383 41.4132 7.6242 41.2151 7.64107C41.1906 7.63966 41.1661 7.63966 41.1416 7.64107C41.1063 7.64107 41.0766 7.64107 41.054 7.64107L40.7447 9.58456ZM37.7603 14.0789H40.0286L40.5385 10.8021L41.0498 14.0789H43.4509L42.4495 10.5295C42.9568 10.4161 43.4016 10.1129 43.6924 9.68201C43.9936 9.19229 44.1411 8.62361 44.1162 8.04926C44.147 7.74509 44.1008 7.43805 43.9818 7.15642C43.8629 6.87479 43.6749 6.62762 43.4354 6.43769C42.6684 6.05323 41.8098 5.88942 40.9552 5.96453H39.0498L37.7603 14.0789ZM48.7206 12.0902C48.7099 12.3903 48.6398 12.6853 48.5142 12.958C48.3886 13.2308 48.2101 13.4759 47.989 13.6792C47.5053 14.075 46.8915 14.2764 46.2673 14.2441C45.9428 14.2671 45.617 14.2223 45.3109 14.1123C45.0047 14.0024 44.7248 13.8299 44.489 13.6057C44.0497 13.0907 43.8301 12.4237 43.8775 11.7484C43.8308 10.8298 44.1038 9.92341 44.6501 9.18343C44.8954 8.87139 45.2109 8.62165 45.5709 8.45452C45.931 8.28738 46.3254 8.20757 46.7221 8.22157C47.3285 8.19033 47.9239 8.3925 48.3859 8.78654C48.592 8.97924 48.7537 9.21448 48.8598 9.47594C48.9659 9.7374 49.0139 10.0188 49.0003 10.3007C49.0003 10.4645 48.9918 10.641 48.9777 10.8317C48.9636 11.0224 48.9396 11.2357 48.9057 11.473H45.893C45.8732 11.6509 45.8563 11.7922 45.8464 11.8967C45.8365 12.0012 45.8323 12.0817 45.8323 12.1439C45.8189 12.301 45.8664 12.4572 45.965 12.5803C46.0193 12.6307 46.0836 12.6693 46.1536 12.6936C46.2236 12.7179 46.2979 12.7274 46.3718 12.7215C46.4529 12.7268 46.5343 12.7153 46.6108 12.6878C46.6873 12.6604 46.7574 12.6175 46.8167 12.5619C46.9312 12.431 46.994 12.2627 46.9933 12.0888L48.7206 12.0902ZM46.0371 10.5168H47.2546C47.2673 10.3967 47.2729 10.3063 47.2743 10.254C47.2757 10.2018 47.2743 10.1509 47.2743 10.1128C47.2841 9.96504 47.2416 9.81856 47.1543 9.69896C47.1091 9.64977 47.0533 9.61149 46.9912 9.58702C46.929 9.56256 46.8621 9.55254 46.7955 9.55772C46.7026 9.55373 46.6101 9.57233 46.526 9.61194C46.4419 9.65155 46.3686 9.71097 46.3125 9.78512C46.1646 10.0073 46.0681 10.2597 46.03 10.5238M52.6528 10.6509C52.664 10.4768 52.6289 10.3029 52.5511 10.1467C52.52 10.0934 52.4748 10.0497 52.4205 10.0203C52.3662 9.99094 52.3049 9.97701 52.2432 9.98003C52.0379 9.98003 51.8633 10.1552 51.7192 10.5055C51.5636 10.921 51.4902 11.3628 51.5031 11.8063C51.4906 11.98 51.5242 12.154 51.6006 12.3105C51.6321 12.3619 51.6771 12.4037 51.7305 12.4316C51.784 12.4594 51.844 12.4723 51.9042 12.4687C52.1105 12.4687 52.2884 12.2922 52.4353 11.9405C52.5912 11.5289 52.6651 11.0908 52.6528 10.6509ZM52.1655 14.0859L52.2545 13.4588C52.0509 13.6954 51.8088 13.896 51.5384 14.052C51.3108 14.1738 51.0564 14.2369 50.7983 14.2357C50.5933 14.2441 50.3894 14.2014 50.2049 14.1114C50.0205 14.0214 49.8614 13.8869 49.7418 13.7201C49.4651 13.2869 49.3331 12.777 49.3647 12.2639C49.3283 11.2631 49.5641 10.2712 50.0469 9.39388C50.1979 9.0663 50.4357 8.78628 50.7345 8.58412C51.0332 8.38197 51.3816 8.26539 51.7418 8.247C51.9838 8.24152 52.2223 8.30627 52.4282 8.43343C52.6484 8.58671 52.8301 8.78876 52.9593 9.02383L53.4452 5.97583H55.4904L54.2121 14.0775L52.1655 14.0859Z" fill="black"/>
<path d="M14.8819 11.5831C15.1193 11.787 15.3871 11.9524 15.6757 12.0732C15.9286 12.1831 16.2008 12.2416 16.4765 12.2456C16.6741 12.2554 16.8679 12.1886 17.0175 12.0591C17.0848 11.9936 17.1374 11.9145 17.1717 11.8271C17.2061 11.7396 17.2214 11.6459 17.2166 11.5521C17.2139 11.3553 17.1556 11.1634 17.0486 10.9984C16.8658 10.7286 16.6494 10.4832 16.4045 10.2682C16.089 9.98258 15.8206 9.6489 15.6093 9.27947C15.4634 8.98609 15.3893 8.66221 15.3932 8.33457C15.3772 7.9924 15.4346 7.65077 15.5615 7.33261C15.6884 7.01445 15.8819 6.72713 16.1291 6.48995C16.6814 6.01256 17.3972 5.76756 18.1262 5.80634C18.4541 5.80473 18.7809 5.84315 19.0994 5.92074C19.4245 6.00364 19.7395 6.12205 20.0387 6.27385L19.7152 8.25123C19.4941 8.09326 19.2546 7.96282 19.0019 7.86282C18.7904 7.77763 18.5648 7.7326 18.3367 7.73005C18.1751 7.71995 18.0155 7.77029 17.889 7.87129C17.8343 7.9226 17.7915 7.98518 17.7634 8.05469C17.7354 8.1242 17.7228 8.19897 17.7265 8.27383C17.7265 8.50453 17.9356 8.82703 18.3536 9.24134C18.4073 9.29219 18.4469 9.33173 18.4779 9.36281C18.8153 9.66648 19.0969 10.0269 19.3098 10.4278C19.4492 10.7523 19.5176 11.1029 19.5104 11.456C19.5303 11.8352 19.469 12.2144 19.3306 12.568C19.1923 12.9217 18.9801 13.2417 18.7082 13.5068C18.1006 14.0325 17.3126 14.3014 16.5104 14.2568C16.1292 14.2595 15.7493 14.212 15.3805 14.1156C15.063 14.0379 14.7614 13.9055 14.4893 13.7244L14.8819 11.5831ZM24.7095 12.0888H22.9807C22.9814 12.2627 22.9186 12.431 22.8042 12.5619C22.7449 12.6176 22.6748 12.6605 22.5983 12.688C22.5218 12.7154 22.4404 12.7268 22.3593 12.7215C22.2856 12.7276 22.2114 12.7182 22.1416 12.6938C22.0718 12.6695 22.0079 12.6308 21.9539 12.5803C21.8553 12.4572 21.8077 12.301 21.8211 12.1439C21.8211 12.0817 21.8211 12.0026 21.8338 11.8967C21.8465 11.7908 21.8607 11.6509 21.8819 11.473H24.8931C24.927 11.2357 24.9496 11.0224 24.9652 10.8317C24.9807 10.641 24.9878 10.4645 24.9878 10.3007C25.0013 10.0188 24.9534 9.7374 24.8473 9.47594C24.7412 9.21448 24.5795 8.97924 24.3734 8.78654C23.9113 8.3925 23.316 8.19033 22.7095 8.22157C22.3128 8.20757 21.9184 8.28738 21.5584 8.45452C21.1984 8.62165 20.8829 8.87139 20.6375 9.18343C20.0912 9.92336 19.8181 10.8298 19.8649 11.7484C19.8175 12.4237 20.0372 13.0907 20.4765 13.6057C20.7123 13.8299 20.9922 14.0024 21.2983 14.1123C21.6045 14.2223 21.9302 14.2671 22.2547 14.2441C22.8789 14.2764 23.4927 14.075 23.9765 13.6792C24.1979 13.4758 24.3767 13.2305 24.5026 12.9575C24.6284 12.6845 24.6987 12.3892 24.7095 12.0888ZM22.0259 10.5168C22.0634 10.2524 22.16 9.99996 22.3084 9.77806C22.3645 9.70391 22.4378 9.64449 22.5219 9.60488C22.6061 9.56527 22.6986 9.54667 22.7915 9.55066C22.8581 9.54547 22.925 9.55549 22.9871 9.57996C23.0493 9.60443 23.105 9.64271 23.1502 9.6919C23.2382 9.81117 23.2808 9.9579 23.2703 10.1057C23.2703 10.1509 23.2703 10.199 23.2703 10.247C23.2703 10.295 23.2703 10.3882 23.2519 10.5097L22.0259 10.5168ZM25.0866 14.0789L25.9864 8.38965H27.9313L27.8041 9.18484C28.0113 8.91057 28.2717 8.68094 28.5697 8.50971C28.8551 8.3499 29.1716 8.25355 29.4976 8.22722L29.1812 10.2329H29.1375C28.7477 10.2018 28.3586 10.3011 28.0315 10.5153C27.7579 10.7888 27.5923 11.152 27.5654 11.5379L27.17 14.0803L25.0866 14.0789ZM29.8988 8.38965H31.9439L32.0612 11.8614L33.2773 8.38965H35.321L32.8097 14.0789H30.6163L29.8988 8.38965ZM34.7659 14.0789H36.8267L37.7278 8.38965H35.6657L34.7659 14.0789ZM38.1332 6.22724C38.1452 6.59806 38.0148 6.95941 37.7688 7.23712C37.654 7.367 37.5123 7.47021 37.3534 7.53951C37.1946 7.6088 37.0225 7.6425 36.8493 7.63824C36.7213 7.64297 36.5938 7.62021 36.4754 7.57148C36.357 7.52275 36.2504 7.44919 36.1628 7.35576C35.9851 7.15411 35.8929 6.89119 35.9058 6.62271C35.8929 6.24938 36.0238 5.88535 36.2716 5.60577C36.3854 5.47492 36.5267 5.37076 36.6854 5.3007C36.8441 5.23064 37.0163 5.1964 37.1897 5.20041C37.3179 5.1951 37.4458 5.2176 37.5645 5.26635C37.6832 5.31511 37.79 5.38898 37.8775 5.48289C38.0553 5.68831 38.1469 5.95448 38.1332 6.22582V6.22724ZM40.7447 9.58456H40.8662C41.0146 9.5937 41.1632 9.56924 41.3009 9.513C41.4386 9.45675 41.5618 9.37017 41.6614 9.2597C41.865 8.99162 41.9653 8.65921 41.9439 8.32327C41.9517 8.22968 41.9399 8.1355 41.9093 8.04673C41.8786 7.95796 41.8298 7.87656 41.7659 7.80773C41.6103 7.68383 41.4132 7.6242 41.2151 7.64107C41.1906 7.63966 41.1661 7.63966 41.1416 7.64107C41.1063 7.64107 41.0766 7.64107 41.054 7.64107L40.7447 9.58456ZM37.7603 14.0789H40.0286L40.5385 10.8021L41.0498 14.0789H43.4509L42.4495 10.5295C42.9568 10.4161 43.4016 10.1129 43.6924 9.68201C43.9936 9.19229 44.1411 8.62361 44.1162 8.04926C44.147 7.74509 44.1008 7.43805 43.9818 7.15642C43.8629 6.87479 43.675 6.62762 43.4354 6.43769C42.6684 6.05323 41.8098 5.88942 40.9552 5.96453H39.0498L37.7603 14.0789ZM48.7207 12.0902C48.7099 12.3903 48.6398 12.6853 48.5142 12.958C48.3886 13.2308 48.2101 13.4759 47.989 13.6792C47.5053 14.075 46.8915 14.2764 46.2673 14.2441C45.9428 14.2671 45.6171 14.2223 45.3109 14.1123C45.0047 14.0024 44.7248 13.8299 44.489 13.6057C44.0497 13.0907 43.8301 12.4237 43.8775 11.7484C43.8308 10.8298 44.1038 9.92341 44.6501 9.18343C44.8954 8.87139 45.2109 8.62165 45.571 8.45452C45.931 8.28738 46.3254 8.20757 46.7221 8.22157C47.3285 8.19033 47.9239 8.3925 48.3859 8.78654C48.592 8.97924 48.7537 9.21448 48.8598 9.47594C48.9659 9.7374 49.0139 10.0188 49.0003 10.3007C49.0003 10.4645 48.9918 10.641 48.9777 10.8317C48.9636 11.0224 48.9396 11.2357 48.9057 11.473H45.893C45.8732 11.6509 45.8563 11.7922 45.8464 11.8967C45.8365 12.0012 45.8323 12.0817 45.8323 12.1439C45.8189 12.301 45.8664 12.4572 45.965 12.5803C46.0194 12.6307 46.0836 12.6693 46.1536 12.6936C46.2236 12.7179 46.2979 12.7274 46.3718 12.7215C46.4529 12.7268 46.5343 12.7153 46.6108 12.6878C46.6873 12.6604 46.7574 12.6175 46.8167 12.5619C46.9312 12.431 46.994 12.2627 46.9933 12.0888L48.7207 12.0902ZM46.0371 10.5168H47.2546C47.2673 10.3967 47.2729 10.3063 47.2743 10.254C47.2758 10.2018 47.2743 10.1509 47.2743 10.1128C47.2841 9.96504 47.2416 9.81856 47.1543 9.69896C47.1091 9.64977 47.0533 9.61149 46.9912 9.58702C46.929 9.56256 46.8621 9.55254 46.7955 9.55772C46.7026 9.55373 46.6101 9.57233 46.526 9.61194C46.4419 9.65155 46.3686 9.71097 46.3125 9.78512C46.1681 10.0058 46.0741 10.2556 46.0371 10.5168ZM52.6599 10.6439C52.6711 10.4698 52.636 10.2958 52.5582 10.1396C52.527 10.0864 52.4818 10.0427 52.4275 10.0133C52.3733 9.98388 52.3119 9.96994 52.2503 9.97297C52.045 9.97297 51.8704 10.1481 51.7263 10.4984C51.5707 10.9139 51.4973 11.3557 51.5102 11.7992C51.4977 11.973 51.5313 12.1469 51.6076 12.3035C51.6392 12.3548 51.6841 12.3967 51.7376 12.4245C51.7911 12.4524 51.8511 12.4652 51.9113 12.4617C52.1175 12.4617 52.2955 12.2851 52.4424 11.9334C52.598 11.5213 52.6714 11.0828 52.6585 10.6425L52.6599 10.6439ZM52.1726 14.0789L52.2616 13.4518C52.0579 13.6884 51.8159 13.8889 51.5455 14.045C51.3179 14.1667 51.0635 14.2298 50.8054 14.2286C50.6003 14.237 50.3964 14.1943 50.212 14.1043C50.0276 14.0143 49.8684 13.8799 49.7489 13.7131C49.4722 13.2798 49.3402 12.7699 49.3718 12.2569C49.3354 11.2561 49.5711 10.2642 50.054 9.38682C50.205 9.05924 50.4428 8.77922 50.7415 8.57706C51.0403 8.37491 51.3886 8.25832 51.7489 8.23993C51.9909 8.23445 52.2293 8.29921 52.4353 8.42637C52.6554 8.57965 52.8372 8.78169 52.9664 9.01676L53.4523 5.96876H55.4974L54.2121 14.0775L52.1726 14.0789Z" stroke="#1E120D" stroke-width="0.0164217" stroke-miterlimit="22.926"/>
<path fill-rule="evenodd" clip-rule="evenodd" d="M6.70356 3.48669C7.92152 3.48669 9.11214 3.84786 10.1248 4.52453C11.1375 5.2012 11.9268 6.16297 12.3929 7.28822C12.859 8.41348 12.981 9.65167 12.7434 10.8462C12.5058 12.0408 11.9193 13.1381 11.058 13.9993C10.1968 14.8605 9.09952 15.4471 7.90495 15.6847C6.71039 15.9223 5.47219 15.8003 4.34694 15.3342C3.22168 14.8681 2.25991 14.0788 1.58324 13.0661C0.906579 12.0534 0.54541 10.8628 0.54541 9.64484C0.54541 8.0116 1.19421 6.44525 2.34909 5.29037C3.50397 4.1355 5.07032 3.48669 6.70356 3.48669Z" fill="black"/>
<path d="M6.70356 15.803C10.1046 15.803 12.8617 13.0459 12.8617 9.64484C12.8617 6.24379 10.1046 3.48669 6.70356 3.48669C3.30251 3.48669 0.54541 6.24379 0.54541 9.64484C0.54541 13.0459 3.30251 15.803 6.70356 15.803Z" stroke="#1E120D" stroke-width="0.0102636" stroke-miterlimit="22.926"/>
<mask id="mask0_7_645" style="mask-type:luminance" maskUnits="userSpaceOnUse" x="0" y="7" width="13" height="5">
<path d="M5.10461 9.64213C5.10406 9.96049 5.19797 10.2719 5.37446 10.5368C5.55095 10.8018 5.80209 11.0084 6.09609 11.1306C6.39008 11.2527 6.7137 11.2849 7.02599 11.223C7.33829 11.1612 7.6252 11.008 7.85041 10.783C8.07563 10.558 8.22901 10.2712 8.29116 9.95898C8.3533 9.64675 8.3214 9.32309 8.19951 9.02899C8.07761 8.73489 7.8712 8.48357 7.6064 8.30685C7.34159 8.13012 7.03031 8.03593 6.71195 8.03621C6.28601 8.03659 5.87761 8.20586 5.5763 8.5069C5.27499 8.80795 5.10536 9.2162 5.10461 9.64213ZM2.06368 7.84271L3.42666 9.2057H0.569336V10.0786H3.42666L2.06368 11.443H3.29672L5.09614 9.64213L3.29672 7.84271H2.06368ZM10.1441 7.84271L8.3447 9.64213L10.1498 11.443H11.3828L10.0184 10.0786H12.8772V9.2057H10.0085L11.3729 7.84271H10.1441Z" fill="white"/>
</mask>
<g mask="url(#mask0_7_645)">
<path d="M12.8715 7.84271H0.569336V11.443H12.8715V7.84271Z" fill="url(#paint0_linear_7_645)"/>
</g>
<mask id="mask1_7_645" style="mask-type:luminance" maskUnits="userSpaceOnUse" x="4" y="11" width="5" height="5">
<path d="M4.90723 13.068V14.301L6.27162 12.9366V15.7954H7.14309V12.9366L8.50607 14.3024V13.0694L6.70665 11.2686L4.90723 13.068Z" fill="white"/>
</mask>
<g mask="url(#mask1_7_645)">
<path d="M8.50607 11.2686H4.90723V15.7954H8.50607V11.2686Z" fill="url(#paint1_linear_7_645)"/>
</g>
<mask id="mask2_7_645" style="mask-type:luminance" maskUnits="userSpaceOnUse" x="4" y="3" width="5" height="6">
<path d="M6.27162 3.49573V6.35305L4.90723 4.99007V6.22311L6.70665 8.02112L8.50607 6.2217V4.99007L7.14309 6.35305V3.49573H6.27162Z" fill="white"/>
</mask>
<g mask="url(#mask2_7_645)">
<path d="M8.50607 3.49573H4.90723V8.02112H8.50607V3.49573Z" fill="url(#paint2_linear_7_645)"/>
</g>
</g>
<defs>
<linearGradient id="paint0_linear_7_645" x1="-4.40074" y1="26.132" x2="-2.98599" y2="26.132" gradientUnits="userSpaceOnUse">
<stop stop-color="#E59A37"/>
<stop offset="0.1" stop-color="#E59A37"/>
<stop offset="0.47" stop-color="#EECD00"/>
<stop offset="0.52" stop-color="#EECD00"/>
<stop offset="0.58" stop-color="#EECD00"/>
<stop offset="0.88" stop-color="#E49D36"/>
<stop offset="1" stop-color="#E59A37"/>
</linearGradient>
<linearGradient id="paint1_linear_7_645" x1="-4.40298" y1="26.1346" x2="-2.99224" y2="26.1346" gradientUnits="userSpaceOnUse">
<stop stop-color="#4080B4"/>
<stop offset="0.58" stop-color="#7390C2"/>
<stop offset="1" stop-color="#E5E9EA"/>
</linearGradient>
<linearGradient id="paint2_linear_7_645" x1="-4.40298" y1="26.1363" x2="-2.99224" y2="26.1363" gradientUnits="userSpaceOnUse">
<stop stop-color="#4A9970"/>
<stop offset="0.58" stop-color="#89B894"/>
<stop offset="1" stop-color="#E1E9E5"/>
</linearGradient>
<clipPath id="clip0_7_645">
<rect width="56.4497" height="18.4744" fill="white" transform="translate(0.54541 0.407593)"/>
</clipPath>
</defs>
</svg>
