<svg width="31" height="19" viewBox="0 0 31 19" fill="none" xmlns="http://www.w3.org/2000/svg">
<g clip-path="url(#clip0_7_1076)">
<path fill-rule="evenodd" clip-rule="evenodd" d="M11.5759 4.01086H14.0174L12.3288 5.70041H19.2169C22.3323 5.70041 22.2952 9.32267 22.2952 9.32267C22.2952 9.32267 22.2571 12.8326 19.1417 12.8326H16.958V8.19858H18.628V11.145C18.8577 11.1366 19.0833 11.0816 19.2911 10.9836C19.499 10.8855 19.6848 10.7464 19.8374 10.5745C19.99 10.4026 20.1062 10.2016 20.179 9.98364C20.2518 9.76563 20.2797 9.53513 20.2609 9.30606C20.2609 7.69172 18.3838 7.54132 18.3838 7.54132H8.02393L11.5759 4.01086Z" fill="#ECA735"/>
<path d="M16.1139 0.407593H14.4624V5.11878H16.1139V0.407593Z" fill="#ECA735"/>
<path d="M18.5836 2.23682H16.9321V5.10806H18.5836V2.23682Z" fill="#ECA735"/>
<path d="M16.0738 8.20953H14.4224V11.0818H16.0738V8.20953Z" fill="#ECA735"/>
<path d="M3.64019 15.6577H2.63525L2.76417 14.9741H5.5856L5.44985 15.6577H4.44492L3.82184 18.8073H3.01711L3.64019 15.6577Z" fill="white"/>
<path d="M6.19535 14.9761H8.46305L8.33414 15.6519H6.85945L6.6944 16.4859H7.94642L7.81751 17.1617H6.56549L6.37017 18.1315H7.89271L7.76282 18.8073H5.42578L6.19535 14.9761Z" fill="white"/>
<path d="M9.29447 14.9761H10.0992L9.4644 18.1315H10.9166L10.7867 18.8073H8.5249L9.29447 14.9761Z" fill="white"/>
<path d="M12.229 14.9761H14.4967L14.3678 15.6519H12.8931L12.7281 16.4859H13.9801L13.8512 17.1617H12.5992L12.4039 18.1315H13.9225L13.7926 18.8073H11.4595L12.229 14.9761Z" fill="white"/>
<path d="M15.3291 14.9771H16.5392C17.2853 14.9771 17.8498 15.2584 17.8498 15.9938C17.8498 17.0632 17.0499 17.4802 16.0811 17.4802H15.628L15.3702 18.8084H14.5586L15.3291 14.9771ZM16.169 16.8395C16.7394 16.8395 17.0558 16.5924 17.0558 16.111C17.0558 15.7701 16.8214 15.6178 16.4103 15.6178H15.9981L15.7637 16.8395H16.169Z" fill="white"/>
<path d="M19.4118 17.8445H18.272L17.8208 18.8074H16.9321L18.9537 14.9771H19.9176L20.2995 18.8074H19.4586L19.4118 17.8445ZM19.3834 17.2389L19.36 16.734C19.3414 16.3571 19.3239 15.9987 19.3131 15.5934H19.2897C19.1236 15.984 18.9772 16.3512 18.7945 16.734L18.5601 17.2389H19.3834Z" fill="white"/>
<path d="M22.8143 14.9066C23.0317 14.8992 23.2469 14.9525 23.4358 15.0605C23.6247 15.1684 23.7797 15.3269 23.8837 15.518L23.3368 15.9409C23.2823 15.839 23.201 15.7539 23.1017 15.6949C23.0024 15.6358 22.8888 15.605 22.7733 15.6059C22.0623 15.6059 21.5447 16.3696 21.5447 17.2222C21.5447 17.8081 21.7742 18.191 22.3738 18.191C22.5209 18.1904 22.6644 18.1459 22.786 18.063L22.95 17.311H22.326L22.449 16.6528H23.7831L23.4305 18.4801C23.0857 18.7417 22.6641 18.8821 22.2312 18.8795C22.021 18.8931 21.8104 18.8602 21.6143 18.7831C21.4182 18.706 21.2416 18.5867 21.0968 18.4336C20.9521 18.2805 20.8429 18.0974 20.777 17.8973C20.7111 17.6972 20.6901 17.485 20.7155 17.2759C20.6936 16.9816 20.7308 16.6859 20.8251 16.4063C20.9193 16.1267 21.0687 15.8688 21.2644 15.6479C21.4601 15.427 21.698 15.2476 21.9643 15.1203C22.2305 14.9929 22.5195 14.9203 22.8143 14.9066Z" fill="white"/>
<path d="M24.3022 17.2569C24.2517 16.6881 24.4276 16.1223 24.7916 15.6822C25.1556 15.2422 25.6784 14.9634 26.2466 14.9062C26.4527 14.9021 26.6574 14.9428 26.8463 15.0255C27.0352 15.1081 27.2039 15.2308 27.3407 15.3851C27.4776 15.5393 27.5794 15.7214 27.639 15.9188C27.6986 16.1162 27.7147 16.3242 27.6861 16.5284C27.7375 17.0979 27.5617 17.6647 27.1969 18.105C26.832 18.5454 26.3079 18.8237 25.7387 18.8791C25.5325 18.8835 25.3277 18.8431 25.1387 18.7605C24.9496 18.678 24.7807 18.5553 24.6438 18.401C24.5069 18.2467 24.4051 18.0644 24.3456 17.8669C24.2861 17.6693 24.2703 17.4612 24.2992 17.2569M25.1215 17.2042C25.1215 17.8156 25.3569 18.1808 25.7798 18.1808C26.3257 18.1808 26.8609 17.464 26.8609 16.5762C26.8609 15.9649 26.6314 15.5996 26.2085 15.5996C25.6626 15.5996 25.1215 16.3106 25.1215 17.1983" fill="white"/>
</g>
<defs>
<clipPath id="clip0_7_1076">
<rect width="29.7644" height="18.4744" fill="white" transform="translate(0.253906 0.407593)"/>
</clipPath>
</defs>
</svg>
