<svg width="34" height="19" viewBox="0 0 34 19" fill="none" xmlns="http://www.w3.org/2000/svg">
<g clip-path="url(#clip0_7_258)">
<path d="M12.5542 14.4378L14.2188 4.68243H16.8779L15.2133 14.4378H12.5542Z" fill="#00528D"/>
<path d="M24.8572 4.92311C24.0933 4.64654 23.2863 4.50776 22.4738 4.51322C19.8469 4.51322 17.9951 5.83654 17.9795 7.73829C17.9649 9.13964 19.3007 9.92302 20.3099 10.3881C21.3502 10.8666 21.6925 11.1714 21.6883 11.599C21.681 12.2524 20.856 12.5509 20.0966 12.5509C19.232 12.5755 18.3736 12.3985 17.5894 12.0339L17.246 11.8789L16.8726 14.0636C17.821 14.4133 18.8246 14.5895 19.8355 14.5838C22.6298 14.5838 24.4452 13.275 24.465 11.2547C24.4754 10.1446 23.7669 9.29985 22.2335 8.60386C21.3034 8.15235 20.7343 7.85169 20.7406 7.39498C20.7406 6.98924 21.2222 6.55542 22.2626 6.55542C22.9464 6.53899 23.6261 6.66586 24.258 6.92786L24.4973 7.04022L24.8572 4.92311Z" fill="#00528D"/>
<path d="M31.6745 4.69226H29.6198C29.331 4.65515 29.0381 4.71423 28.7863 4.86035C28.5345 5.00647 28.3378 5.23149 28.2268 5.50061L24.2734 14.4414H27.0657C27.0657 14.4414 27.5224 13.2398 27.6254 12.9755H31.0315C31.1106 13.3167 31.3551 14.4372 31.3551 14.4372H33.8269L31.6745 4.69226ZM28.3953 10.9801C28.6148 10.4183 29.4544 8.25337 29.4544 8.25337C29.4388 8.27938 29.6728 7.68846 29.807 7.31706L29.987 8.15766C29.987 8.15766 30.4958 10.487 30.6029 10.9749L28.3953 10.9801Z" fill="#00528D"/>
<path d="M10.3218 4.68945L7.72098 11.3425L7.44321 9.99002C6.76848 8.21386 5.45416 6.75408 3.7583 5.8973L6.14278 14.4292H8.95171L13.1381 4.69257L10.3218 4.68945Z" fill="#00528D"/>
<path d="M5.30549 4.68402H1.01718L0.983887 4.88689C2.39507 5.14664 3.72134 5.74747 4.84719 6.63705C5.97304 7.52663 6.86432 8.67799 7.4434 9.99083L6.50709 5.50798C6.43898 5.24848 6.27952 5.02228 6.05802 4.87091C5.83651 4.71955 5.56783 4.65319 5.30133 4.68402" fill="#E79D00"/>
</g>
<defs>
<clipPath id="clip0_7_258">
<rect width="32.8435" height="18.4744" fill="white" transform="translate(0.983887 0.407593)"/>
</clipPath>
</defs>
</svg>
